<svg width="500" height="500" viewBox="0 0 500 500" fill="none" xmlns="http://www.w3.org/2000/svg">
<path fill-rule="evenodd" clip-rule="evenodd" d="M194.68 103.02C194.574 101.887 194.554 100.773 194.62 99.68L189.98 97.32L191.14 92.68L196.38 92.8C196.834 91.7866 197.374 90.82 198 89.9L195.14 85.52L198.48 82.08L202.94 84.82C203.834 84.18 204.787 83.6133 205.8 83.12L205.52 77.9L210.14 76.6L212.62 81.18C213.74 81.0733 214.854 81.06 215.96 81.14L218.32 76.48L222.96 77.66L222.82 82.88C223.834 83.3466 224.807 83.8866 225.74 84.5L230.12 81.66L233.54 85L230.82 89.44C231.46 90.3467 232.027 91.3067 232.52 92.32L237.74 92.04L239.04 96.64L234.46 99.14C234.567 100.26 234.58 101.367 234.5 102.46L239.16 104.84L237.98 109.48L232.76 109.34C232.294 110.353 231.747 111.32 231.12 112.24L233.98 116.62L230.64 120.06L226.2 117.32C225.294 117.973 224.334 118.547 223.32 119.04L223.6 124.26L219 125.56L216.5 120.96C215.38 121.067 214.267 121.087 213.16 121.02L210.8 125.66L206.16 124.5L206.3 119.26C205.287 118.807 204.32 118.267 203.4 117.64L199.02 120.5L195.58 117.16L198.3 112.7C197.66 111.807 197.094 110.853 196.6 109.84L191.38 110.12L190.08 105.5L194.68 103.02ZM202.72 104.44C204.56 110.98 211.38 114.8 217.92 112.94C224.48 111.1 228.28 104.28 226.42 97.74C224.58 91.18 217.76 87.38 211.22 89.22C204.66 91.08 200.86 97.9 202.72 104.44Z" fill="#F8F8F8"/>
<path fill-rule="evenodd" clip-rule="evenodd" d="M210.801 126.12C210.761 126.12 210.728 126.113 210.701 126.1L206.061 124.92C205.861 124.88 205.721 124.68 205.721 124.48L205.841 119.54C205.001 119.14 204.181 118.68 203.401 118.18L199.261 120.86C199.081 120.98 198.841 120.96 198.701 120.82L195.261 117.48C195.121 117.32 195.101 117.1 195.201 116.92L197.781 112.72C197.241 111.96 196.761 111.14 196.341 110.3L191.401 110.56C191.201 110.56 191.021 110.44 190.961 110.24L189.661 105.62C189.601 105.42 189.681 105.22 189.881 105.12L194.201 102.76C194.121 101.82 194.121 100.86 194.161 99.94L189.761 97.7C189.581 97.62 189.481 97.4 189.541 97.2L190.721 92.56C190.761 92.36 190.961 92.22 191.161 92.22L196.101 92.36C196.501 91.5 196.961 90.68 197.461 89.9L194.781 85.76C194.661 85.58 194.681 85.36 194.821 85.2L198.161 81.78C198.301 81.62 198.541 81.6 198.721 81.7L202.921 84.28C203.681 83.76 204.501 83.28 205.341 82.84L205.081 77.92C205.061 77.7 205.201 77.52 205.401 77.46L210.001 76.16C210.201 76.1 210.421 76.2 210.521 76.38L212.881 80.72C213.821 80.64 214.761 80.62 215.701 80.68L217.921 76.28C218.021 76.1 218.241 76 218.441 76.04L223.081 77.22C223.281 77.28 223.421 77.46 223.421 77.66L223.281 82.6C224.121 83 224.961 83.46 225.741 83.98L229.881 81.28C230.041 81.16 230.281 81.18 230.421 81.34L233.861 84.68C234.001 84.82 234.041 85.04 233.921 85.22L231.361 89.42C231.881 90.2 232.361 91 232.801 91.86L237.721 91.58C237.921 91.58 238.121 91.72 238.181 91.92L239.481 96.52C239.541 96.72 239.441 96.94 239.261 97.04L234.921 99.38C235.001 100.34 235.021 101.28 234.961 102.2L239.361 104.44C239.541 104.54 239.641 104.74 239.581 104.94L238.421 109.58C238.361 109.78 238.161 109.92 237.981 109.92L233.041 109.78C232.641 110.64 232.181 111.46 231.661 112.24L234.361 116.38C234.461 116.56 234.441 116.78 234.301 116.94L230.961 120.36C230.821 120.52 230.581 120.54 230.421 120.44L226.201 117.86C225.441 118.38 224.641 118.88 223.781 119.3L224.041 124.22C224.061 124.44 223.921 124.62 223.721 124.68L219.121 125.98C218.921 126.04 218.701 125.94 218.601 125.76L216.261 121.42C215.301 121.5 214.361 121.52 213.441 121.48L211.201 125.86C211.121 126.02 210.961 126.12 210.801 126.12ZM206.621 124.14L210.561 125.14L212.781 120.8C212.861 120.64 213.021 120.56 213.201 120.56C214.261 120.64 215.361 120.62 216.461 120.52C216.641 120.5 216.801 120.58 216.901 120.74L219.221 125.02L223.141 123.92L222.881 119.06C222.861 118.88 222.961 118.7 223.121 118.64C224.121 118.14 225.061 117.58 225.941 116.96C226.081 116.86 226.281 116.86 226.421 116.94L230.581 119.5L233.421 116.58L230.761 112.48C230.661 112.34 230.661 112.14 230.761 112C231.361 111.1 231.901 110.14 232.341 109.16C232.421 108.98 232.601 108.88 232.761 108.9L237.641 109.02L238.641 105.06L234.301 102.86C234.141 102.78 234.041 102.62 234.061 102.44C234.141 101.38 234.121 100.28 234.001 99.18C233.981 99 234.081 98.82 234.241 98.74L238.521 96.42L237.421 92.5L232.541 92.76C232.361 92.76 232.201 92.66 232.121 92.5C231.641 91.52 231.081 90.58 230.461 89.7C230.361 89.56 230.341 89.36 230.441 89.22L232.981 85.06L230.061 82.22L225.981 84.88C225.821 84.98 225.641 84.98 225.481 84.88C224.581 84.28 223.641 83.74 222.641 83.28C222.481 83.22 222.381 83.04 222.381 82.88L222.521 78L218.561 77L216.361 81.34C216.281 81.5 216.101 81.6 215.921 81.58C214.861 81.5 213.761 81.52 212.661 81.62C212.501 81.64 212.321 81.56 212.241 81.4L209.901 77.12L205.981 78.22L206.241 83.1C206.261 83.26 206.161 83.44 206.001 83.52C205.001 84 204.061 84.56 203.201 85.18C203.061 85.28 202.861 85.28 202.701 85.2L198.561 82.66L195.721 85.58L198.381 89.66C198.481 89.8 198.461 90 198.361 90.16C197.761 91.04 197.221 92 196.781 93C196.701 93.16 196.541 93.26 196.361 93.26L191.501 93.12L190.481 97.08L194.821 99.28C194.981 99.36 195.081 99.52 195.081 99.7C195.001 100.78 195.021 101.88 195.121 102.96C195.141 103.14 195.041 103.32 194.901 103.4L190.601 105.72L191.721 109.64L196.581 109.38C196.761 109.38 196.921 109.48 197.001 109.64C197.481 110.62 198.041 111.58 198.681 112.44C198.781 112.58 198.781 112.78 198.681 112.94L196.141 117.08L199.061 119.92L203.161 117.26C203.301 117.16 203.501 117.16 203.641 117.26C204.541 117.88 205.501 118.4 206.481 118.86C206.641 118.94 206.761 119.1 206.741 119.28L206.621 124.14ZM214.561 113.84C212.401 113.84 210.281 113.28 208.341 112.2C205.361 110.54 203.221 107.82 202.281 104.54C201.361 101.26 201.761 97.8 203.421 94.82C205.101 91.86 207.821 89.7 211.101 88.78C214.381 87.84 217.821 88.26 220.801 89.92C223.781 91.58 225.941 94.3 226.861 97.58C227.781 100.86 227.381 104.32 225.721 107.3C224.061 110.26 221.321 112.42 218.041 113.34C216.901 113.68 215.721 113.84 214.561 113.84ZM211.341 89.64C208.281 90.5 205.761 92.5 204.201 95.26C202.661 98.04 202.281 101.24 203.141 104.3C204.001 107.34 206.001 109.88 208.781 111.42C211.541 112.98 214.761 113.36 217.801 112.5C220.861 111.62 223.401 109.62 224.941 106.86C226.481 104.08 226.861 100.88 226.001 97.82C225.141 94.78 223.141 92.24 220.361 90.7C217.601 89.14 214.401 88.76 211.341 89.64Z" fill="#7438F2"/>
<path fill-rule="evenodd" clip-rule="evenodd" d="M121.801 149.7C121.601 147.78 121.581 145.86 121.701 143.98L113.741 139.94L115.741 132L124.701 132.24C125.481 130.5 126.421 128.84 127.481 127.26L122.601 119.76L128.301 113.88L135.921 118.56C137.461 117.46 139.101 116.48 140.841 115.64L140.361 106.72L148.241 104.48L152.501 112.34C154.421 112.16 156.341 112.12 158.221 112.26L162.261 104.3L170.201 106.3L169.961 115.24C171.701 116.04 173.361 116.96 174.941 118.02L182.441 113.14L188.301 118.86L183.641 126.48C184.741 128.02 185.721 129.66 186.561 131.38L195.481 130.9L197.721 138.78L189.861 143.06C190.041 144.98 190.081 146.88 189.941 148.76L197.901 152.82L195.901 160.76L186.961 160.52C186.161 162.24 185.241 163.92 184.161 165.5L189.061 173L183.341 178.86L175.721 174.2C174.181 175.28 172.541 176.26 170.821 177.1L171.301 186.04L163.421 188.26L159.141 180.4C157.221 180.6 155.321 180.62 153.441 180.5L149.381 188.46L141.441 186.44L141.681 177.5C139.941 176.72 138.281 175.78 136.701 174.72L129.201 179.6L123.341 173.9L128.001 166.28C126.901 164.74 125.941 163.1 125.101 161.36L116.161 161.84L113.941 153.96L121.801 149.7ZM135.521 152.12C138.701 163.32 150.361 169.84 161.561 166.68C172.761 163.5 179.281 151.86 176.121 140.64C172.941 129.44 161.301 122.92 150.081 126.1C138.881 129.26 132.361 140.92 135.521 152.12Z" fill="#F8F8F8"/>
<path fill-rule="evenodd" clip-rule="evenodd" d="M149.381 188.9C149.354 188.9 149.321 188.9 149.281 188.9L141.341 186.88C141.141 186.82 141.001 186.64 141.001 186.44L141.221 177.78C139.661 177.06 138.141 176.2 136.701 175.26L129.461 179.98C129.281 180.1 129.041 180.06 128.901 179.92L123.021 174.22C122.881 174.06 122.841 173.84 122.961 173.66L127.481 166.3C126.501 164.9 125.601 163.4 124.821 161.82L116.181 162.28C115.981 162.3 115.781 162.16 115.741 161.96L113.501 154.08C113.441 153.88 113.541 153.68 113.721 153.58L121.321 149.44C121.161 147.7 121.141 145.96 121.241 144.26L113.541 140.34C113.361 140.24 113.261 140.04 113.301 139.84L115.321 131.9C115.361 131.68 115.541 131.54 115.761 131.56L124.421 131.78C125.141 130.22 126.001 128.7 126.941 127.26L122.221 120C122.101 119.82 122.121 119.6 122.281 119.44L127.981 113.58C128.141 113.42 128.361 113.4 128.541 113.5L135.901 118.02C137.301 117.04 138.801 116.16 140.381 115.38L139.901 106.74C139.901 106.52 140.041 106.34 140.241 106.28L148.121 104.06C148.321 104 148.521 104.08 148.621 104.28L152.761 111.88C154.501 111.72 156.241 111.7 157.941 111.8L161.861 104.08C161.961 103.9 162.161 103.8 162.361 103.86L170.301 105.88C170.501 105.92 170.641 106.1 170.641 106.32L170.421 114.96C171.981 115.7 173.501 116.54 174.941 117.5L182.201 112.78C182.381 112.66 182.601 112.68 182.741 112.82L188.621 118.54C188.761 118.68 188.801 118.92 188.681 119.1L184.181 126.46C185.161 127.86 186.041 129.36 186.821 130.92L195.461 130.46C195.661 130.44 195.861 130.58 195.921 130.78L198.141 138.66C198.201 138.86 198.121 139.08 197.921 139.18L190.321 143.3C190.481 145.06 190.501 146.8 190.401 148.5L198.101 152.42C198.301 152.5 198.401 152.72 198.341 152.92L196.321 160.86C196.281 161.06 196.081 161.2 195.881 161.2L187.241 160.96C186.501 162.54 185.661 164.06 184.701 165.5L189.421 172.74C189.541 172.92 189.521 173.16 189.381 173.3L183.661 179.18C183.521 179.32 183.281 179.36 183.101 179.24L175.741 174.72C174.341 175.7 172.841 176.6 171.281 177.38L171.741 186.02C171.741 186.22 171.621 186.42 171.421 186.46L163.541 188.7C163.341 188.76 163.121 188.66 163.021 188.48L158.901 180.88C157.141 181.04 155.401 181.06 153.701 180.96L149.781 188.66C149.701 188.82 149.561 188.9 149.381 188.9ZM141.901 186.1L149.161 187.94L153.041 180.3C153.121 180.14 153.281 180.04 153.461 180.04C155.321 180.18 157.201 180.14 159.101 179.96C159.281 179.94 159.441 180.04 159.541 180.2L163.641 187.74L170.821 185.7L170.361 177.12C170.361 176.94 170.461 176.78 170.621 176.7C172.321 175.88 173.961 174.9 175.461 173.84C175.601 173.72 175.801 173.72 175.961 173.82L183.261 178.3L188.481 172.94L183.801 165.74C183.701 165.58 183.701 165.4 183.801 165.24C184.841 163.68 185.781 162.04 186.541 160.34C186.621 160.16 186.781 160.06 186.961 160.08L195.561 160.3L197.381 153.04L189.741 149.16C189.581 149.08 189.481 148.92 189.501 148.74C189.621 146.88 189.601 145 189.401 143.1C189.401 142.92 189.481 142.76 189.641 142.66L197.181 138.56L195.161 131.36L186.581 131.84C186.401 131.84 186.241 131.74 186.161 131.58C185.321 129.86 184.361 128.24 183.281 126.74C183.181 126.6 183.161 126.4 183.261 126.24L187.741 118.92L182.381 113.72L175.181 118.4C175.041 118.5 174.841 118.5 174.701 118.4C173.141 117.36 171.481 116.42 169.781 115.66C169.621 115.58 169.521 115.42 169.521 115.24L169.741 106.64L162.501 104.8L158.601 112.46C158.521 112.62 158.361 112.72 158.181 112.7C156.341 112.58 154.441 112.6 152.541 112.78C152.381 112.8 152.201 112.72 152.121 112.56L148.021 105L140.821 107.04L141.281 115.62C141.281 115.8 141.181 115.96 141.021 116.04C139.321 116.88 137.681 117.84 136.181 118.92C136.041 119.02 135.841 119.04 135.701 118.94L128.381 114.46L123.161 119.82L127.861 127.02C127.941 127.16 127.941 127.36 127.841 127.5C126.801 129.06 125.881 130.72 125.101 132.42C125.021 132.58 124.861 132.68 124.681 132.68L116.101 132.46L114.261 139.7L121.901 143.58C122.061 143.68 122.161 143.84 122.141 144.02C122.021 145.86 122.061 147.76 122.241 149.64C122.261 149.82 122.161 150 122.001 150.08L114.461 154.18L116.501 161.38L125.061 160.92C125.261 160.9 125.421 161 125.501 161.18C126.321 162.88 127.301 164.52 128.361 166.02C128.481 166.16 128.481 166.36 128.381 166.5L123.901 173.82L129.261 179.04L136.461 174.34C136.621 174.24 136.801 174.26 136.961 174.36C138.501 175.4 140.161 176.32 141.861 177.1C142.021 177.18 142.141 177.34 142.121 177.52L141.901 186.1ZM155.841 167.9C146.441 167.9 137.781 161.7 135.101 152.22C131.881 140.8 138.541 128.88 149.981 125.64C155.501 124.08 161.321 124.76 166.341 127.58C171.361 130.38 174.981 134.98 176.541 140.5C178.121 146.04 177.421 151.86 174.621 156.88C171.821 161.9 167.221 165.52 161.681 167.08C159.741 167.64 157.761 167.9 155.841 167.9ZM155.861 125.72C153.981 125.72 152.081 125.98 150.221 126.5C139.261 129.6 132.861 141.02 135.961 151.98C139.061 162.94 150.501 169.32 161.441 166.22C166.741 164.72 171.161 161.26 173.841 156.44C176.541 151.62 177.201 146.06 175.701 140.74C174.201 135.44 170.721 131.04 165.901 128.34C162.781 126.6 159.341 125.72 155.861 125.72Z" fill="#7438F2"/>
<path d="M412.521 67.44H320.381C316.781 67.44 313.881 70.36 313.881 73.96V175.62C313.881 179.22 316.781 182.14 320.381 182.14H412.521C416.121 182.14 419.041 179.22 419.041 175.62V73.96C419.041 70.36 416.121 67.44 412.521 67.44Z" fill="#F8F8F8"/>
<path fill-rule="evenodd" clip-rule="evenodd" d="M412.521 182.58H320.381C316.541 182.58 313.421 179.46 313.421 175.62V73.96C313.421 70.12 316.541 67 320.381 67H412.521C416.361 67 419.481 70.12 419.481 73.96V175.62C419.481 179.46 416.361 182.58 412.521 182.58ZM320.381 67.9C317.041 67.9 314.321 70.62 314.321 73.96V175.62C314.321 178.96 317.041 181.68 320.381 181.68H412.521C415.881 181.68 418.601 178.96 418.601 175.62V73.96C418.601 70.62 415.881 67.9 412.521 67.9H320.381Z" fill="#7438F2"/>
<path d="M413.941 78.5801H319.041C318.801 78.5801 318.601 78.3801 318.601 78.1201C318.601 77.8801 318.801 77.6801 319.041 77.6801H413.941C414.201 77.6801 414.401 77.8801 414.401 78.1201C414.401 78.3801 414.201 78.5801 413.941 78.5801Z" fill="#7438F2"/>
<path d="M322.381 72.46C322.381 73.38 321.641 74.12 320.721 74.12C319.801 74.12 319.041 73.38 319.041 72.46C319.041 71.54 319.801 70.78 320.721 70.78C321.641 70.78 322.381 71.54 322.381 72.46Z" fill="#7438F2"/>
<path d="M329.061 72.46C329.061 73.38 328.321 74.12 327.401 74.12C326.481 74.12 325.721 73.38 325.721 72.46C325.721 71.54 326.481 70.78 327.401 70.78C328.321 70.78 329.061 71.54 329.061 72.46Z" fill="#7438F2"/>
<path d="M335.741 72.46C335.741 73.38 335.001 74.12 334.081 74.12C333.141 74.12 332.401 73.38 332.401 72.46C332.401 71.54 333.141 70.78 334.081 70.78C335.001 70.78 335.741 71.54 335.741 72.46Z" fill="#7438F2"/>
<path d="M413.941 72.9H404.541C404.301 72.9 404.101 72.7 404.101 72.46C404.101 72.2 404.301 72 404.541 72H413.941C414.201 72 414.401 72.2 414.401 72.46C414.401 72.7 414.201 72.9 413.941 72.9Z" fill="#7438F2"/>
<path d="M400.321 72.9H361.361C361.121 72.9 360.921 72.7 360.921 72.46C360.921 72.2 361.121 72 361.361 72H400.321C400.561 72 400.761 72.2 400.761 72.46C400.761 72.7 400.561 72.9 400.321 72.9Z" fill="#7438F2"/>
<path d="M351.121 72.9H342.841C342.581 72.9 342.381 72.7 342.381 72.46C342.381 72.2 342.581 72 342.841 72H351.121C351.381 72 351.581 72.2 351.581 72.46C351.581 72.7 351.381 72.9 351.121 72.9Z" fill="#7438F2"/>
<path d="M350.501 121.84C353.541 116.54 359.181 112.78 365.741 112.1L366.201 86.16C347.361 86.22 330.721 96.84 323.141 112.52L350.501 121.84Z" fill="#F8F8F8"/>
<path fill-rule="evenodd" clip-rule="evenodd" d="M350.501 122.28C350.448 122.28 350.401 122.273 350.361 122.26L323.001 112.94C322.881 112.9 322.781 112.82 322.741 112.7C322.681 112.58 322.701 112.44 322.741 112.34C330.521 96.22 347.581 85.78 366.201 85.7C366.321 85.7133 366.428 85.76 366.521 85.84C366.601 85.92 366.641 86.04 366.641 86.16L366.181 112.12C366.181 112.34 366.001 112.52 365.781 112.54C359.481 113.2 353.921 116.76 350.881 122.06C350.801 122.2 350.661 122.28 350.501 122.28ZM323.761 112.26L350.301 121.3C353.441 116.04 359.001 112.48 365.301 111.7L365.741 86.6C347.821 86.82 331.441 96.84 323.761 112.26Z" fill="#7438F2"/>
<path d="M349.221 93.66C349.041 93.66 348.861 93.54 348.801 93.38C348.701 93.14 348.821 92.88 349.041 92.8C353.301 91.08 357.781 90 362.361 89.6C362.621 89.58 362.821 89.76 362.841 90C362.861 90.26 362.681 90.46 362.441 90.5C357.941 90.88 353.561 91.94 349.381 93.62C349.328 93.6467 349.275 93.66 349.221 93.66Z" fill="#7438F2"/>
<path d="M334.201 103.66C334.081 103.66 333.981 103.62 333.881 103.54C333.721 103.36 333.701 103.08 333.881 102.9C337.101 99.62 340.821 96.86 344.961 94.7C345.181 94.58 345.441 94.66 345.561 94.88C345.661 95.1 345.581 95.36 345.361 95.48C341.321 97.6 337.661 100.32 334.521 103.52C334.441 103.62 334.321 103.66 334.201 103.66Z" fill="#7438F2"/>
<path d="M386.86 133.34C385.3 141.86 377.54 148.58 368.02 148.86C365.18 148.96 362.48 148.46 360.02 147.5L345.16 170.5C352.06 173.62 359.86 175.14 368.02 174.68C391.74 173.32 410.4 155.46 412.48 133.96L386.86 133.34Z" fill="#F8F8F8"/>
<path fill-rule="evenodd" clip-rule="evenodd" d="M365.181 175.2C358.181 175.2 351.241 173.74 344.981 170.92C344.861 170.86 344.781 170.76 344.741 170.64C344.701 170.5 344.721 170.38 344.781 170.26L359.641 147.26C359.761 147.08 359.981 147.02 360.181 147.1C362.661 148.06 365.301 148.5 368.001 148.42C377.141 148.14 384.881 141.76 386.421 133.26C386.461 133.04 386.661 132.9 386.861 132.9L412.481 133.52C412.601 133.52 412.721 133.56 412.801 133.66C412.881 133.76 412.921 133.88 412.921 134C410.781 156.1 391.501 173.78 368.041 175.12C367.094 175.173 366.141 175.2 365.181 175.2ZM345.821 170.32C352.681 173.32 360.341 174.68 368.001 174.24C390.841 172.92 409.661 155.84 411.981 134.4L387.221 133.8C385.441 142.52 377.441 149.02 368.041 149.32C365.321 149.4 362.681 148.98 360.201 148.06L345.821 170.32Z" fill="#7438F2"/>
<path d="M365.121 171.48C360.121 171.48 355.241 170.7 350.601 169.14C350.381 169.06 350.241 168.8 350.321 168.56C350.401 168.34 350.661 168.2 350.901 168.28C355.441 169.82 360.221 170.6 365.121 170.6C366.021 170.6 366.901 170.58 367.781 170.52C368.021 170.5 368.241 170.7 368.261 170.94C368.261 171.18 368.081 171.4 367.841 171.4C366.941 171.46 366.021 171.48 365.121 171.48Z" fill="#7438F2"/>
<path d="M377.181 169.88C377.001 169.88 376.821 169.76 376.761 169.56C376.701 169.32 376.841 169.08 377.081 169C392.661 164.76 404.701 152.38 407.741 137.48C407.781 137.24 408.021 137.1 408.261 137.14C408.501 137.18 408.661 137.42 408.601 137.66C405.501 152.88 393.221 165.52 377.301 169.86C377.261 169.873 377.221 169.88 377.181 169.88Z" fill="#7438F2"/>
<path d="M340.521 168.08L355.501 145.02C351.021 141.7 348.141 136.54 348.141 130.68C348.141 129.26 348.301 127.88 348.621 126.56L321.161 117.34C319.701 121.66 318.901 126.26 318.901 131.04C318.901 146.82 327.561 160.4 340.521 168.08Z" fill="#F8F8F8"/>
<path fill-rule="evenodd" clip-rule="evenodd" d="M340.521 168.54C340.441 168.54 340.361 168.513 340.281 168.46C326.621 160.36 318.461 146.36 318.461 131.04C318.461 126.32 319.221 121.66 320.741 117.2C320.821 116.98 321.081 116.84 321.321 116.92L348.761 126.12C348.981 126.2 349.121 126.44 349.061 126.66C348.741 127.98 348.581 129.32 348.581 130.68C348.581 136.18 351.201 141.28 355.761 144.66C355.961 144.8 356.001 145.06 355.881 145.26L340.881 168.32C340.801 168.46 340.661 168.54 340.521 168.54ZM321.461 117.92C320.061 122.16 319.341 126.56 319.341 131.04C319.341 145.9 327.201 159.5 340.381 167.48L354.901 145.12C350.321 141.58 347.701 136.34 347.701 130.68C347.701 129.38 347.821 128.1 348.101 126.84L321.461 117.92Z" fill="#7438F2"/>
<path d="M374.261 111.12C382.921 112.42 389.581 119.12 390.381 127.42L432.281 128.64C432.281 128.627 432.281 128.607 432.281 128.58C432.281 97.86 407.781 71.54 375.001 68.16L374.261 111.12Z" fill="#F8F8F8"/>
<path fill-rule="evenodd" clip-rule="evenodd" d="M432.261 129.08L390.361 127.88C390.141 127.86 389.941 127.7 389.921 127.48C389.161 119.36 382.681 112.82 374.181 111.56C373.961 111.54 373.801 111.34 373.801 111.12L374.561 68.16C374.561 68.02 374.621 67.92 374.701 67.82C374.801 67.74 374.921 67.7 375.041 67.72C390.961 69.36 405.581 76.5 416.261 87.82C426.861 99.08 432.721 113.56 432.721 128.58C432.721 128.7 432.661 128.86 432.581 128.94C432.501 129.02 432.381 129.08 432.261 129.08ZM390.781 127L431.821 128.18C431.621 97.66 407.481 72.2 375.441 68.66L374.701 110.74C383.281 112.18 389.801 118.78 390.781 127Z" fill="#7438F2"/>
<path d="M327.281 117.52H272.441C269.741 117.52 267.541 119.72 267.541 122.42V195.28C267.541 197.98 269.741 200.18 272.441 200.18H327.281C329.981 200.18 332.161 197.98 332.161 195.28V122.42C332.161 119.72 329.981 117.52 327.281 117.52Z" fill="#F8F8F8"/>
<path fill-rule="evenodd" clip-rule="evenodd" d="M327.281 200.62H272.441C269.501 200.62 267.101 198.22 267.101 195.28V122.42C267.101 119.48 269.501 117.08 272.441 117.08H327.281C330.221 117.08 332.621 119.48 332.621 122.42V195.28C332.621 198.22 330.221 200.62 327.281 200.62ZM272.441 117.96C269.981 117.96 267.981 119.96 267.981 122.42V195.28C267.981 197.74 269.981 199.72 272.441 199.72H327.281C329.721 199.72 331.721 197.74 331.721 195.28V122.42C331.721 119.96 329.721 117.96 327.281 117.96H272.441Z" fill="#7438F2"/>
<path d="M289.301 187.4H275.221V141.14H289.301V187.4Z" fill="#F8F8F8"/>
<path fill-rule="evenodd" clip-rule="evenodd" d="M289.3 187.84H275.22C274.98 187.84 274.78 187.64 274.78 187.4V141.14C274.78 140.9 274.98 140.7 275.22 140.7H289.3C289.56 140.7 289.74 140.9 289.74 141.14V187.4C289.74 187.64 289.54 187.84 289.3 187.84ZM275.68 186.96H288.86V141.58H275.68V186.96Z" fill="#7438F2"/>
<path d="M306.9 187.4H292.82V128.38H306.9V187.4Z" fill="#F8F8F8"/>
<path fill-rule="evenodd" clip-rule="evenodd" d="M306.9 187.84H292.82C292.58 187.84 292.38 187.64 292.38 187.4V128.38C292.38 128.14 292.58 127.94 292.82 127.94H306.9C307.14 127.94 307.34 128.14 307.34 128.38V187.4C307.34 187.64 307.14 187.84 306.9 187.84ZM293.26 186.96H306.44V128.82H293.26V186.96Z" fill="#7438F2"/>
<path d="M324.48 187.4H310.4V159.82H324.48V187.4Z" fill="#F8F8F8"/>
<path fill-rule="evenodd" clip-rule="evenodd" d="M324.48 187.84H310.4C310.16 187.84 309.96 187.64 309.96 187.4V159.82C309.96 159.58 310.16 159.38 310.4 159.38H324.48C324.74 159.38 324.94 159.58 324.94 159.82V187.4C324.94 187.64 324.74 187.84 324.48 187.84ZM310.86 186.96H324.04V160.26H310.86V186.96Z" fill="#7438F2"/>
<path d="M217.88 366.3L219.12 378.02L227.04 378.96V365.06L217.88 366.3Z" fill="#F8F8F8"/>
<path fill-rule="evenodd" clip-rule="evenodd" d="M227.04 379.4C227.013 379.4 226.994 379.4 226.98 379.4L219.06 378.48C218.86 378.44 218.68 378.28 218.66 378.08L217.44 366.36C217.42 366.12 217.58 365.9 217.82 365.86L226.98 364.62C227.1 364.6 227.24 364.64 227.32 364.72C227.42 364.82 227.48 364.94 227.48 365.06V378.96C227.48 379.08 227.42 379.2 227.34 379.28C227.24 379.36 227.14 379.4 227.04 379.4ZM219.52 377.62L226.58 378.46V365.58L218.36 366.7L219.52 377.62Z" fill="#7438F2"/>
<path d="M228.28 399.36C224.98 399.82 219.56 400.24 213.2 399.36C211.12 399.06 209.74 397.04 210.24 395C211.64 389.32 214.06 378.52 218.2 373.52L219.22 376.22L220.64 373.68C220.84 373.32 221.18 373.08 221.58 373.04L224.7 372.64C225.34 372.56 225.96 373 226.08 373.64L226.58 375.98L227.66 372.9L231.28 395.4C231.54 397.32 230.2 399.08 228.28 399.36Z" fill="#F8F8F8"/>
<path fill-rule="evenodd" clip-rule="evenodd" d="M220.8 400.32C218.48 400.32 215.9 400.18 213.14 399.8C212.02 399.64 211.02 399.02 210.38 398.08C209.76 397.14 209.54 395.98 209.82 394.9L210.12 393.66C211.54 387.8 213.94 377.98 217.86 373.24C217.96 373.12 218.12 373.06 218.26 373.08C218.42 373.1 218.56 373.22 218.62 373.36L219.3 375.18L220.26 373.46C220.52 372.98 221 372.66 221.54 372.6L224.64 372.2C225.5 372.1 226.34 372.68 226.52 373.54L226.68 374.34L227.24 372.76C227.32 372.56 227.5 372.44 227.7 372.46C227.9 372.48 228.08 372.62 228.1 372.82L231.72 395.32C232.02 397.5 230.5 399.5 228.34 399.8C226.4 400.08 223.82 400.32 220.8 400.32ZM218.06 374.42C214.54 379.2 212.32 388.32 210.98 393.88L210.68 395.1C210.46 395.96 210.62 396.84 211.12 397.58C211.62 398.3 212.4 398.78 213.26 398.92C219.52 399.78 224.84 399.4 228.22 398.92C229.88 398.68 231.06 397.12 230.84 395.44L227.5 374.7L227 376.14C226.94 376.32 226.74 376.44 226.56 376.44C226.36 376.42 226.18 376.28 226.14 376.08L225.66 373.72C225.56 373.32 225.18 373.04 224.76 373.08L221.64 373.48C221.38 373.52 221.16 373.66 221.04 373.9L219.62 376.44C219.54 376.6 219.36 376.68 219.2 376.68C219.02 376.66 218.88 376.54 218.8 376.38L218.06 374.42Z" fill="#7438F2"/>
<path d="M219.1 396.54C217 396.54 214.7 396.36 212.42 395.84C212.18 395.78 212.04 395.54 212.1 395.3C212.14 395.06 212.38 394.92 212.62 394.98C220.38 396.74 228.52 394.46 228.6 394.44C228.84 394.38 229.08 394.52 229.16 394.74C229.22 394.98 229.08 395.24 228.84 395.3C228.6 395.36 224.4 396.54 219.1 396.54Z" fill="#7438F2"/>
<path d="M217.22 387.84C216.98 387.84 216.78 387.64 216.76 387.4C216.76 387.16 216.96 386.94 217.2 386.94L224.62 386.7C224.86 386.7 225.08 386.88 225.08 387.12C225.1 387.38 224.9 387.58 224.66 387.58L217.22 387.84Z" fill="#7438F2"/>
<path d="M255 360.06L256.18 377.18H265.72L266.16 360.06H255Z" fill="#F8F8F8"/>
<path fill-rule="evenodd" clip-rule="evenodd" d="M265.72 377.62H256.18C255.94 377.62 255.76 377.44 255.74 377.2L254.56 360.1C254.54 359.98 254.58 359.86 254.66 359.76C254.76 359.68 254.88 359.62 255 359.62H266.16C266.28 359.62 266.4 359.68 266.48 359.76C266.56 359.84 266.6 359.96 266.6 360.08L266.16 377.18C266.16 377.42 265.96 377.62 265.72 377.62ZM256.6 376.72H265.28L265.7 360.52H255.48L256.6 376.72Z" fill="#7438F2"/>
<path d="M253.7 386.82C253.66 388.44 254.78 389.86 256.34 390.24C261.84 391.5 274.18 394.34 277.7 394.88C282.28 395.56 287.9 394.16 290.3 391.48C292.72 388.8 284.9 382.42 281.18 380.1C275.66 376.64 270.36 369.82 268.14 369.52C265.92 369.22 261.78 375.66 261.78 375.66L255 372.8C255 372.8 253.82 378.62 253.7 386.82Z" fill="#F8F8F8"/>
<path fill-rule="evenodd" clip-rule="evenodd" d="M280.1 395.48C279.26 395.48 278.44 395.44 277.64 395.32C274.08 394.78 261.5 391.88 256.24 390.66C254.48 390.26 253.22 388.64 253.24 386.82C253.36 378.66 254.54 372.78 254.56 372.72C254.58 372.6 254.66 372.48 254.78 372.42C254.9 372.36 255.04 372.34 255.16 372.4L261.6 375.1C262.66 373.52 266 368.78 268.2 369.08C269.46 369.26 271.26 370.96 273.76 373.32C276.08 375.52 278.7 378.02 281.42 379.72C284.4 381.58 290.7 386.52 291.18 389.86C291.28 390.62 291.1 391.26 290.64 391.78C288.6 394.04 284.28 395.48 280.1 395.48ZM255.34 373.44C255.04 375.06 254.24 380.18 254.14 386.84C254.12 388.24 255.08 389.48 256.44 389.8C261.68 391.02 274.24 393.9 277.76 394.44C282.34 395.12 287.72 393.68 289.98 391.18C290.26 390.86 290.36 390.48 290.3 389.98C289.9 387.14 284.02 382.38 280.94 380.48C278.16 378.72 275.5 376.2 273.14 373.96C271.04 371.98 269.06 370.1 268.08 369.96C266.68 369.76 263.7 373.5 262.16 375.9C262.04 376.08 261.8 376.16 261.6 376.06L255.34 373.44Z" fill="#7438F2"/>
<path d="M280 392.36C270.08 392.36 256.76 386.98 256.02 386.66C255.78 386.58 255.68 386.32 255.78 386.08C255.86 385.86 256.12 385.74 256.36 385.84C256.6 385.94 280.74 395.7 287.86 389.28C288.04 389.12 288.32 389.12 288.48 389.32C288.64 389.5 288.64 389.78 288.44 389.94C286.5 391.7 283.46 392.36 280 392.36Z" fill="#7438F2"/>
<path d="M269.42 382C269.3 382 269.18 381.94 269.1 381.84C268.94 381.66 268.94 381.38 269.14 381.22L273.98 376.84C274.16 376.68 274.44 376.68 274.6 376.88C274.78 377.06 274.76 377.34 274.58 377.5L269.72 381.88C269.64 381.96 269.54 382 269.42 382Z" fill="#7438F2"/>
<path d="M215.181 248.58C215.181 248.58 212.221 302.04 210.681 320.5C209.121 338.96 214.301 368.62 214.301 368.62L229.001 367.84C229.001 367.84 230.021 331.78 231.121 321.76C231.121 321.76 237.321 308.18 239.181 296.06C241.021 283.96 247.281 264.82 247.281 264.82C247.281 264.82 252.381 360.3 252.881 367.8C252.881 367.8 264.421 368.32 268.561 365.72C268.561 365.72 275.881 330.9 274.841 311.96C273.781 293.02 274.941 245.96 274.941 245.96L215.181 248.58Z" fill="#7438F2"/>
<path d="M228.4 322.2H223.9C223.66 322.2 223.46 322 223.46 321.76C223.46 321.52 223.66 321.32 223.9 321.32H228.4C228.64 321.32 228.84 321.52 228.84 321.76C228.84 322 228.64 322.2 228.4 322.2Z" fill="#F8F8F8"/>
<path d="M260.44 349.98C260.44 349.98 260.44 349.973 260.44 349.96C260.2 349.96 260 349.76 260 349.52C260.16 340.7 269.84 324.88 270.26 324.2C270.4 324 270.66 323.92 270.88 324.06C271.08 324.18 271.14 324.46 271.02 324.66C270.92 324.84 261.04 340.96 260.9 349.54C260.88 349.78 260.68 349.98 260.44 349.98Z" fill="#F8F8F8"/>
<path d="M279.6 163.08C280.66 163 285.92 173.76 302.38 173.32C318.84 172.86 332.04 154.44 332.04 154.44C332.04 154.44 337.74 144.86 342.04 141.4C346.36 137.92 347.04 137.48 347.04 137.48C347.04 137.48 348.38 139.28 347.04 141.4C345.68 143.52 341.94 147.48 341.94 147.48C341.94 147.48 346.06 149.74 344.2 154.44C342.08 159.86 336.06 159.42 336.06 159.42C336.06 159.42 323.86 213.44 273.42 187.78L279.6 163.08Z" fill="#F8F8F8"/>
<path fill-rule="evenodd" clip-rule="evenodd" d="M298.44 195.14C290.78 195.14 282.34 192.82 273.22 188.16C273.04 188.08 272.94 187.86 273 187.66L279.16 162.96C279.22 162.78 279.38 162.64 279.56 162.64C280 162.6 280.36 162.98 281.2 163.92C283.68 166.7 289.52 173.22 302.38 172.86C318.42 172.42 331.56 154.36 331.68 154.18C331.9 153.82 337.44 144.52 341.76 141.04C346.04 137.62 346.76 137.12 346.78 137.1C346.98 136.98 347.24 137.02 347.4 137.2C347.46 137.28 348.92 139.28 347.4 141.64C346.28 143.4 343.6 146.36 342.62 147.4C343.72 148.22 346.2 150.6 344.62 154.6C342.72 159.44 337.82 159.86 336.4 159.86C335.64 162.86 329.66 184.06 312.66 192.06C308.28 194.1 303.52 195.14 298.44 195.14ZM273.94 187.54C288.74 195 301.64 196.24 312.28 191.24C330.12 182.88 335.58 159.56 335.62 159.32C335.68 159.1 335.88 158.96 336.1 158.98C336.32 159 341.8 159.32 343.8 154.28C345.48 150 341.88 147.96 341.74 147.88C341.62 147.8 341.52 147.68 341.5 147.56C341.48 147.42 341.52 147.28 341.62 147.18C341.66 147.14 345.34 143.22 346.66 141.16C347.48 139.86 347.16 138.7 346.9 138.12C346.34 138.54 345.08 139.52 342.32 141.74C338.12 145.12 332.48 154.58 332.42 154.68C332.28 154.88 318.88 173.3 302.4 173.76C302.053 173.773 301.713 173.78 301.38 173.78C288.82 173.78 283.04 167.32 280.52 164.52C280.3 164.26 280.06 164 279.88 163.8L273.94 187.54Z" fill="#7438F2"/>
<path d="M198.02 187.78C198.02 187.78 202.96 155.9 220.42 148.06C237.86 140.2 261.48 141.3 267.98 145.22C274.48 149.14 291.46 166.84 291.46 166.84L276.46 187.78C276.46 187.78 279.88 244.12 277.18 258.98C277.18 258.98 260.5 260.94 253.42 258.14C246.36 255.36 223.1 251.46 211.98 256.56L214 185.24L198.02 187.78Z" fill="#F8F8F8"/>
<path fill-rule="evenodd" clip-rule="evenodd" d="M265.4 260.1C260.98 260.1 256.3 259.76 253.26 258.56C246.3 255.82 223.28 251.86 212.16 256.98C212.02 257.04 211.86 257.02 211.74 256.94C211.6 256.86 211.52 256.7 211.54 256.56L213.54 185.76L198.1 188.22C197.96 188.24 197.82 188.18 197.72 188.08C197.62 187.98 197.56 187.84 197.58 187.7C197.8 186.4 202.76 155.5 220.24 147.64C237.42 139.92 261.2 140.62 268.2 144.84C274.7 148.74 291.08 165.8 291.78 166.54C291.92 166.68 291.94 166.92 291.82 167.1L276.92 187.9C277.12 191.22 280.24 244.7 277.62 259.06C277.58 259.26 277.42 259.4 277.24 259.44C276.84 259.48 271.36 260.1 265.4 260.1ZM227.08 253.62C237.64 253.62 249.02 255.94 253.6 257.74C259.94 260.24 274.42 258.84 276.8 258.58C279.36 243.44 276.06 188.36 276.02 187.8C276.02 187.7 276.04 187.6 276.1 187.52L290.88 166.88C288.72 164.66 273.7 149.18 267.74 145.6C261.62 141.92 238.06 140.6 220.6 148.46C204.88 155.52 199.36 182.8 198.58 187.24L213.92 184.8C214.06 184.78 214.2 184.82 214.3 184.9C214.4 184.98 214.44 185.12 214.44 185.24L212.44 255.88C216.38 254.24 221.62 253.62 227.08 253.62Z" fill="#7438F2"/>
<path d="M227.3 242.32C227.1 242.32 226.9 242.16 226.86 241.94C226.82 241.7 226.98 241.48 227.22 241.42C253.74 236.74 261.48 218.38 261.56 218.2C261.66 217.96 261.92 217.86 262.14 217.94C262.38 218.04 262.48 218.3 262.38 218.52C262.32 218.72 254.4 237.52 227.38 242.3C227.353 242.313 227.326 242.32 227.3 242.32Z" fill="#7438F2"/>
<path d="M275.2 210.06H241.24L251.88 172.12H285.84L275.2 210.06Z" fill="#7438F2"/>
<path d="M201.02 187.9L218.2 180.22C218.2 180.22 215.78 209.32 250.56 195.88C250.56 195.88 249.28 192.14 249.46 187.78C249.64 183.4 252.24 187.62 252.62 191.18C252.98 194.74 261.14 193.3 266.04 191.9C270.96 190.5 277.4 191.4 266.04 197.66C254.7 203.92 252.22 201.14 252.22 201.14C252.22 201.14 237.74 221.4 219.7 217.1C197.54 211.8 201.02 187.9 201.02 187.9Z" fill="#F8F8F8"/>
<path fill-rule="evenodd" clip-rule="evenodd" d="M224.74 218.14C223.06 218.14 221.34 217.94 219.6 217.54C207.94 214.74 203.38 206.8 201.62 200.64C199.72 193.98 200.54 188.08 200.58 187.82C200.6 187.68 200.7 187.54 200.84 187.48L218.02 179.8C218.16 179.74 218.34 179.76 218.46 179.84C218.6 179.94 218.66 180.1 218.64 180.24C218.64 180.36 217.86 190.92 224.78 196.1C230.14 200.12 238.62 199.94 250 195.62C249.68 194.52 248.86 191.36 249 187.76C249.02 187.2 249.1 185.5 250.14 185.46C250.14 185.46 250.147 185.46 250.16 185.46C251.5 185.46 252.82 188.84 253.06 191.14C253.1 191.62 253.34 192 253.76 192.28C255.8 193.66 261.58 192.7 265.92 191.46C268.2 190.82 272.06 190.38 272.72 191.98C273.28 193.36 271.18 195.34 266.26 198.06C256.96 203.18 253.44 202.38 252.32 201.76C250.44 204.18 239.12 218.14 224.74 218.14ZM201.44 188.2C201.3 189.38 200.84 194.68 202.48 200.42C204.96 209.04 210.8 214.52 219.8 216.66C221.48 217.06 223.14 217.24 224.74 217.24C239.96 217.24 251.72 201.06 251.86 200.88C251.94 200.76 252.06 200.7 252.2 200.68C252.34 200.68 252.46 200.74 252.56 200.84C252.56 200.86 255.12 203.18 265.84 197.28C272.24 193.74 271.96 192.46 271.9 192.32C271.62 191.66 269 191.52 266.16 192.32C263.86 192.98 256.14 194.96 253.26 193.02C252.62 192.58 252.24 191.98 252.18 191.22C251.9 188.64 250.6 186.44 250.16 186.36C250.16 186.38 249.94 186.6 249.9 187.78C249.72 192.02 250.96 195.7 250.98 195.74C251.06 195.96 250.94 196.22 250.72 196.3C238.84 200.9 229.92 201.06 224.24 196.82C217.94 192.1 217.66 183.5 217.72 180.92L201.44 188.2Z" fill="#7438F2"/>
<path d="M246.88 133.52C245.4 134.88 242.5 136.54 240.24 135.4C238.54 134.54 237.6 132.34 237.66 129.82C236.88 129.88 235.84 129.82 235.12 129.18C233.98 128.18 234.2 126.34 234.24 125.14C234.44 119.58 231.22 118.72 232 114.94C232.62 111.98 234.96 110.22 235.4 109.88C237.6 108.22 239.08 108.76 242.78 107.78C249 106.16 249.2 103.48 253.3 103.46C253.54 103.46 259.12 103.52 261.02 107.38C262.56 110.52 260.76 114.32 258.9 116.32C256.48 118.92 254.76 117.64 252.34 119.8C248.1 123.62 251.3 129.48 246.88 133.52Z" fill="#7438F2"/>
<path d="M259.32 123.6L259.06 123.38C257.84 122.32 256.56 121.1 256.22 119.5C254.84 112.72 248.64 110.28 248.34 116.48C248.28 118.06 242.54 117.98 243.22 119.62C245 123.92 245.04 122.76 242.54 124.34C242.26 124.36 241.98 124.42 241.7 124.54C240.42 125.14 239.96 126.88 240.7 128.42C241.12 129.38 241.9 130.02 242.72 130.26V137.04C242.72 139.58 241.18 141.86 238.84 142.84L236.54 143.76C236.54 143.76 247.22 150.74 258.06 143.08L256.62 142.44C254.08 141.3 252.4 138.8 252.32 136L252.3 134.68C253.02 134.74 253.74 134.7 254.38 134.5C257.42 133.62 258.42 130.14 257.9 125.78L259.14 125.12C259.72 124.82 259.8 124.02 259.32 123.6Z" fill="#F8F8F8"/>
<path fill-rule="evenodd" clip-rule="evenodd" d="M247.1 147.1C240.94 147.1 236.38 144.18 236.3 144.14C236.16 144.06 236.08 143.9 236.1 143.72C236.12 143.56 236.22 143.42 236.38 143.36L238.66 142.42C240.86 141.52 242.28 139.4 242.28 137.04V130.58C241.42 130.22 240.72 129.54 240.28 128.62C239.46 126.84 240.02 124.84 241.52 124.14C241.786 124.007 242.08 123.927 242.4 123.9C242.8 123.64 243.14 123.46 243.42 123.32C243.74 123.14 244.04 123 244.04 122.9C244.06 122.7 243.82 122.14 243.48 121.34C243.3 120.92 243.08 120.42 242.82 119.8C242.7 119.5 242.7 119.2 242.82 118.92C243.16 118.22 244.28 117.9 245.56 117.54C246.48 117.28 247.88 116.9 247.9 116.46C248.06 113.04 249.84 112.54 250.62 112.48C252.8 112.3 255.74 114.9 256.66 119.4C256.96 120.88 258.22 122.06 259.36 123.04L259.6 123.26C259.94 123.56 260.12 124 260.08 124.46C260.02 124.9 259.76 125.3 259.36 125.52L258.38 126.04C258.88 130.84 257.48 134.08 254.52 134.94C253.96 135.1 253.38 135.16 252.74 135.16L252.76 136C252.84 138.6 254.42 140.96 256.8 142.04L258.24 142.68C258.4 142.74 258.5 142.88 258.5 143.04C258.52 143.2 258.46 143.36 258.32 143.44C254.42 146.2 250.52 147.1 247.1 147.1ZM237.56 143.84C240.12 145.16 248.56 148.76 257.16 143.16L256.44 142.84C253.76 141.64 251.96 138.96 251.86 136.02V134.68C251.86 134.56 251.9 134.44 252 134.36C252.08 134.26 252.22 134.22 252.34 134.24C253.04 134.3 253.68 134.24 254.26 134.08C256.84 133.34 258 130.32 257.46 125.84C257.44 125.66 257.54 125.48 257.7 125.4L258.94 124.74C259.08 124.66 259.16 124.52 259.18 124.36C259.2 124.2 259.14 124.04 259.02 123.94L258.78 123.72C257.52 122.64 256.14 121.34 255.78 119.58C254.98 115.68 252.5 113.22 250.68 113.36C249.56 113.46 248.88 114.6 248.8 116.5C248.74 117.58 247.32 117.98 245.8 118.4C244.96 118.64 243.8 118.96 243.62 119.32C243.62 119.34 243.6 119.36 243.64 119.46C243.9 120.08 244.12 120.58 244.3 121C245.14 122.92 245.3 123.32 243.84 124.1C243.56 124.26 243.2 124.44 242.78 124.72C242.713 124.76 242.64 124.78 242.56 124.78C242.32 124.793 242.1 124.847 241.9 124.94C240.84 125.44 240.48 126.92 241.1 128.24C241.46 129.02 242.12 129.62 242.84 129.82C243.04 129.88 243.18 130.06 243.18 130.26V137.04C243.18 139.78 241.54 142.2 239 143.24L237.56 143.84Z" fill="#7438F2"/>
<path d="M252.3 135.12C252.273 135.12 252.253 135.12 252.24 135.12C247.86 134.46 245.9 131.12 245.82 130.98C245.7 130.76 245.76 130.48 245.98 130.36C246.2 130.24 246.46 130.32 246.58 130.52C246.6 130.56 248.44 133.64 252.36 134.24C252.6 134.28 252.78 134.5 252.74 134.74C252.7 134.96 252.52 135.12 252.3 135.12Z" fill="#7438F2"/>
<path fill-rule="evenodd" clip-rule="evenodd" d="M107.48 193.84C106.92 193.84 106.36 193.72 105.84 193.5C104.8 193.06 104 192.24 103.58 191.2C102.7 189.04 103.74 186.56 105.9 185.7C108.06 184.82 110.54 185.88 111.4 188.04C112.28 190.2 111.22 192.66 109.06 193.54C108.56 193.74 108.02 193.84 107.48 193.84ZM107.48 186.28C107.06 186.28 106.64 186.36 106.24 186.52C104.54 187.22 103.72 189.16 104.4 190.86C104.74 191.68 105.36 192.34 106.18 192.68C107 193.02 107.9 193.04 108.74 192.7C110.44 192.02 111.26 190.08 110.58 188.36C110.06 187.08 108.8 186.28 107.48 186.28Z" fill="#7438F2"/>
<path d="M418.76 203.2C418.64 203.2 418.54 203.16 418.44 203.08C418.28 202.92 418.26 202.64 418.44 202.46L420.52 200.28C420.7 200.1 420.98 200.1 421.16 200.26C421.34 200.44 421.34 200.72 421.16 200.9L419.08 203.08C419 203.16 418.88 203.2 418.76 203.2Z" fill="#7438F2"/>
<path d="M411.461 210.84C411.341 210.84 411.221 210.8 411.141 210.72C410.961 210.56 410.961 210.28 411.121 210.1L413.221 207.92C413.381 207.74 413.661 207.72 413.841 207.9C414.021 208.06 414.041 208.34 413.861 208.52L411.781 210.7C411.681 210.8 411.561 210.84 411.461 210.84Z" fill="#7438F2"/>
<path d="M413.5 203.32C413.38 203.32 413.28 203.28 413.18 203.2L411.06 201.12C410.9 200.94 410.9 200.66 411.06 200.48C411.24 200.3 411.52 200.3 411.7 200.48L413.82 202.56C413.98 202.74 413.98 203.02 413.82 203.2C413.72 203.28 413.62 203.32 413.5 203.32Z" fill="#7438F2"/>
<path d="M420.921 210.64C420.801 210.64 420.681 210.6 420.601 210.5L418.481 208.42C418.301 208.24 418.301 207.96 418.481 207.78C418.661 207.62 418.941 207.62 419.101 207.78L421.221 209.88C421.401 210.04 421.401 210.32 421.241 210.5C421.141 210.6 421.041 210.64 420.921 210.64Z" fill="#7438F2"/>
<path d="M267.5 75.84C267.4 75.84 267.28 75.8 267.2 75.72C267.02 75.54 267.02 75.26 267.18 75.08L269.28 72.9C269.44 72.72 269.72 72.72 269.9 72.9C270.08 73.06 270.08 73.34 269.92 73.52L267.82 75.7C267.74 75.8 267.62 75.84 267.5 75.84Z" fill="#7438F2"/>
<path d="M260.2 83.48C260.1 83.48 259.98 83.44 259.9 83.36C259.72 83.18 259.7 82.9 259.88 82.72L261.96 80.54C262.14 80.36 262.42 80.36 262.6 80.52C262.78 80.7 262.78 80.98 262.62 81.16L260.52 83.34C260.44 83.44 260.32 83.48 260.2 83.48Z" fill="#7438F2"/>
<path d="M262.241 75.96C262.141 75.96 262.021 75.92 261.941 75.84L259.821 73.74C259.641 73.56 259.641 73.28 259.821 73.12C259.981 72.94 260.261 72.94 260.441 73.1L262.561 75.2C262.741 75.36 262.741 75.66 262.561 75.82C262.481 75.92 262.361 75.96 262.241 75.96Z" fill="#7438F2"/>
<path d="M269.66 83.26C269.56 83.26 269.44 83.22 269.36 83.14L267.24 81.06C267.06 80.88 267.06 80.6 267.22 80.42C267.4 80.24 267.68 80.24 267.86 80.42L269.98 82.5C270.16 82.68 270.16 82.96 269.98 83.14C269.9 83.22 269.78 83.26 269.66 83.26Z" fill="#7438F2"/>
<path d="M203.28 355.7L196.52 424.96L191.7 424.76L194.1 351.94L203.28 355.7Z" fill="#F8F8F8"/>
<path fill-rule="evenodd" clip-rule="evenodd" d="M196.52 425.4C196.52 425.4 196.514 425.4 196.5 425.4L191.68 425.2C191.44 425.18 191.24 424.98 191.26 424.74L193.66 351.92C193.66 351.78 193.74 351.64 193.86 351.56C193.98 351.48 194.12 351.48 194.26 351.52L203.46 355.28C203.64 355.36 203.76 355.54 203.74 355.74L196.96 425C196.94 425.22 196.76 425.4 196.52 425.4ZM192.16 424.32L196.12 424.48L202.82 355.98L194.52 352.6L192.16 424.32Z" fill="#7438F2"/>
<path d="M112.56 353.2L119.16 425.12L124.16 424.74L121.76 349.32L112.56 353.2Z" fill="#F8F8F8"/>
<path fill-rule="evenodd" clip-rule="evenodd" d="M119.16 425.58C118.94 425.58 118.74 425.4 118.72 425.16L112.12 353.24C112.1 353.04 112.2 352.86 112.38 352.8L121.58 348.9C121.72 348.84 121.88 348.86 122 348.94C122.12 349.02 122.2 349.16 122.2 349.3L124.6 424.74C124.6 424.98 124.42 425.18 124.18 425.2L119.2 425.56C119.186 425.573 119.173 425.58 119.16 425.58ZM113.04 353.48L119.56 424.64L123.7 424.34L121.32 349.98L113.04 353.48Z" fill="#7438F2"/>
<path d="M89.5801 336.28L91.5201 411.8L95.4201 410.96L99.0001 332.68L89.5801 336.28Z" fill="#F8F8F8"/>
<path fill-rule="evenodd" clip-rule="evenodd" d="M91.5196 412.24C91.4196 412.24 91.3196 412.22 91.2596 412.16C91.1396 412.08 91.0796 411.94 91.0796 411.82L89.1396 336.28C89.1396 336.1 89.2396 335.92 89.4196 335.86L98.8396 332.26C98.9796 332.22 99.1396 332.24 99.2596 332.32C99.3796 332.42 99.4396 332.56 99.4396 332.7L95.8596 410.98C95.8596 411.18 95.7196 411.34 95.5196 411.4L91.6196 412.24C91.593 412.24 91.5596 412.24 91.5196 412.24ZM90.0396 336.58L91.9596 411.26L94.9996 410.6L98.5196 333.34L90.0396 336.58Z" fill="#7438F2"/>
<path d="M165.72 334.58L167.66 410.12L171.72 410.14L175.14 331L165.72 334.58Z" fill="#F8F8F8"/>
<path d="M146.16 275.6V293.18C146.16 310.36 159.72 324.3 176.44 324.3C193.16 324.3 206.72 338.22 206.72 355.42C206.72 356.94 205.48 358.18 203.94 358.18H123.8C98.7399 358.18 78.4199 337.3 78.4199 311.54V274.04C78.4199 263.8 86.4999 255.48 96.4599 255.48H126.58C137.4 255.48 146.16 264.5 146.16 275.6Z" fill="#F8F8F8"/>
<path fill-rule="evenodd" clip-rule="evenodd" d="M203.94 358.64H123.8C98.52 358.64 77.96 337.5 77.96 311.54V274.04C77.96 263.56 86.26 255.04 96.46 255.04H126.58C137.62 255.04 146.6 264.26 146.6 275.6V293.18C146.6 310.08 159.98 323.84 176.44 323.84C193.38 323.84 207.16 338 207.16 355.42C207.16 357.18 205.72 358.64 203.94 358.64ZM96.46 255.92C86.76 255.92 78.86 264.06 78.86 274.04V311.54C78.86 337.02 99.02 357.74 123.8 357.74H203.94C205.22 357.74 206.26 356.7 206.26 355.42C206.26 338.5 192.88 324.74 176.44 324.74C159.5 324.74 145.72 310.58 145.72 293.18V275.6C145.72 264.76 137.14 255.92 126.58 255.92H96.46Z" fill="#7438F2"/>
<path d="M70.6603 242.82C69.4203 242.3 68.3403 241.42 67.6603 240.2C66.6603 238.4 66.1203 235.52 68.3803 231.42C73.5003 222.14 82.0403 226.52 85.3003 225.44C92.6203 223.04 90.9003 219.08 93.8603 215.22C96.1003 212.36 103.78 206.92 115.46 217.04C115.46 217.04 120.7 224.2 126.64 221.46C133.94 218.12 148.6 225.7 143.98 236.94C142.64 240.18 140.22 242.68 137.3 244.04C136.767 244.28 136.18 244.513 135.54 244.74C133.72 245.36 132.3 247 131.84 249.1C130.36 255.96 124.7 269.18 103.74 255.86C102.16 254.86 100.28 254.74 98.6403 255.5C96.6403 256.42 94.4603 260.04 84.7603 258.52C78.5403 257.54 76.5603 250.3 74.9203 247C73.6003 244.38 71.7203 243.26 70.6603 242.82Z" fill="#7438F2"/>
<path d="M178.46 293.38C170.22 295.96 154.42 288.8 151.74 276.8C149.6 267.28 146.26 262.46 144.96 260.86C144.36 259.82 143.54 258.82 142.46 257.88C134.78 251.14 121.48 253.32 115.72 254.26C109.2 255.34 103.78 256.22 100.1 260.36C99.1401 261.46 98.4401 262.62 97.9601 263.84C90.9401 277.08 96.6201 290.74 100.14 297.06C100.72 322.36 92.3601 318.38 94.6201 329.62C97.8001 345.46 123.3 339.54 132.58 337.52C135.84 336.8 152.86 341.86 157.04 328.72C159.46 321.04 154.84 317.5 150.76 304.46C171.66 317.44 187.18 295.3 187.18 295.3L188.78 287.54C188.78 287.54 184.56 291.48 178.46 293.38Z" fill="#F8F8F8"/>
<path fill-rule="evenodd" clip-rule="evenodd" d="M112.7 340.74C107.76 340.74 103 339.96 99.4605 337.66C96.6605 335.82 94.8805 333.14 94.1805 329.7C93.1605 324.66 94.2205 322.6 95.7005 319.72C97.5205 316.16 100 311.28 99.7005 297.18C95.8805 290.26 90.5805 276.8 97.5605 263.64C98.0805 262.34 98.8005 261.16 99.7805 260.08C103.56 255.8 109.16 254.88 115.66 253.82C121.42 252.88 134.92 250.66 142.76 257.54C143.84 258.48 144.68 259.5 145.34 260.62C146.7 262.3 150.04 267.18 152.16 276.7C153.32 281.88 157.241 286.7 162.881 289.96C168.22 293.04 174.28 294.22 178.34 292.96C184.26 291.1 188.44 287.24 188.48 287.22C188.62 287.08 188.84 287.06 189 287.14C189.16 287.24 189.26 287.44 189.22 287.62L187.6 295.38C187.6 295.447 187.58 295.507 187.54 295.56C187.5 295.6 183.521 301.22 177.04 305.12C171.201 308.64 162.1 311.48 151.56 305.44C152.84 309.4 154.2 312.48 155.3 314.98C157.58 320.22 159.1 323.68 157.46 328.86C154.08 339.54 142.46 338.58 136.22 338.06C134.66 337.92 133.3 337.8 132.68 337.94L132.1 338.08C127.48 339.08 119.9 340.74 112.7 340.74ZM98.3405 264.1C91.5405 276.94 96.8005 290.12 100.54 296.84C100.567 296.893 100.58 296.96 100.58 297.04C100.92 311.46 98.3605 316.46 96.4805 320.14C95.0405 322.94 94.1005 324.8 95.0605 329.54C95.7005 332.72 97.3405 335.22 99.9605 336.92C108.3 342.36 124.24 338.88 131.9 337.2L132.48 337.08C133.24 336.92 134.52 337.02 136.3 337.16C142.7 337.7 153.44 338.6 156.6 328.58C158.14 323.74 156.761 320.58 154.48 315.34C153.261 312.58 151.76 309.14 150.34 304.58C150.28 304.4 150.34 304.22 150.5 304.1C150.64 303.98 150.84 303.98 151 304.08C159.5 309.36 168.1 309.46 176.54 304.38C182.5 300.8 186.28 295.78 186.76 295.12L188.08 288.72C186.48 290 183.06 292.42 178.6 293.8C174.32 295.14 167.98 293.94 162.44 290.74C156.58 287.36 152.52 282.32 151.3 276.9C149.2 267.52 145.92 262.76 144.62 261.14C144.607 261.127 144.594 261.113 144.58 261.1C143.96 260.04 143.18 259.1 142.18 258.22C134.64 251.6 121.44 253.78 115.8 254.7C109.22 255.78 104.02 256.64 100.44 260.66C99.5205 261.7 98.8605 262.78 98.3805 264C98.3672 264.04 98.3538 264.073 98.3405 264.1Z" fill="#7438F2"/>
<path d="M142.02 291.32C142.02 291.32 157.06 285.82 161.76 275.8L171.44 266.78C171.44 266.78 171.3 271.14 168.42 272.96C168.42 272.96 170.9 277.94 167.26 281.36C167.26 281.36 164.52 283.54 162.9 283.58C162.9 283.58 158.12 299.24 145.26 303.9C145.26 303.9 141.64 298.4 142.02 291.32Z" fill="#F8F8F8"/>
<path fill-rule="evenodd" clip-rule="evenodd" d="M145.26 304.34C145.1 304.34 144.96 304.28 144.88 304.14C144.72 303.92 141.18 298.44 141.58 291.28C141.58 291.1 141.7 290.96 141.86 290.9C142.02 290.84 156.8 285.36 161.36 275.62C161.387 275.567 161.42 275.52 161.46 275.48L171.14 266.46C171.26 266.34 171.46 266.3 171.62 266.38C171.78 266.44 171.9 266.62 171.88 266.8C171.88 266.98 171.72 271.1 168.98 273.12C169.48 274.38 170.82 278.62 167.56 281.68C167.42 281.8 164.98 283.72 163.22 283.98C162.48 286.16 157.38 299.98 145.4 304.32C145.347 304.333 145.3 304.34 145.26 304.34ZM142.46 291.62C142.22 297.42 144.74 302.14 145.44 303.36C157.7 298.66 162.42 283.6 162.46 283.44C162.52 283.26 162.7 283.14 162.88 283.12C164.1 283.1 166.24 281.6 166.98 281.02C170.3 277.88 168.12 273.36 168.02 273.16C167.92 272.96 168 272.7 168.18 272.58C169.94 271.48 170.6 269.3 170.86 267.94L162.12 276.08C157.66 285.46 144.6 290.8 142.46 291.62Z" fill="#7438F2"/>
<path d="M128.461 308.88C115.921 308.88 108.741 302.66 108.641 302.58C108.461 302.42 108.441 302.14 108.601 301.96C108.761 301.76 109.041 301.76 109.221 301.92C109.361 302.02 122.161 313.04 143.461 305.14C143.701 305.04 143.961 305.16 144.041 305.4C144.121 305.62 144.001 305.88 143.781 305.96C138.041 308.1 132.921 308.88 128.461 308.88Z" fill="#7438F2"/>
<path d="M136.16 291.92C125.24 291.92 118.88 285.7 115.4 280.22C111.3 273.76 110.2 266.92 110.2 266.84C110.16 266.6 110.32 266.38 110.56 266.34C110.82 266.3 111.04 266.46 111.08 266.72C111.08 266.78 112.16 273.48 116.16 279.76C121.5 288.14 129.24 291.88 139.18 290.86C139.42 290.84 139.64 291.02 139.66 291.26C139.68 291.52 139.52 291.72 139.26 291.76C138.194 291.867 137.16 291.92 136.16 291.92Z" fill="#7438F2"/>
<path d="M144.621 284.02C144.594 284.02 144.574 284.02 144.561 284.02C144.321 283.98 144.141 283.76 144.181 283.5C146.141 270.08 140.001 262.48 139.941 262.4C139.781 262.22 139.801 261.94 140.001 261.78C140.181 261.62 140.461 261.66 140.621 261.84C140.881 262.16 147.081 269.8 145.061 283.64C145.021 283.86 144.841 284.02 144.621 284.02Z" fill="#7438F2"/>
<path d="M141.84 246.28C141.42 243.48 142.1 236.06 141.98 236.24C140.78 238 136.84 235.92 133.28 235.78C129.74 235.64 130.92 240.98 130.92 240.98C130.92 240.98 129.88 237.36 127.68 239.62C126.38 240.94 127.8 242.64 129.12 243.74C128.76 244.16 122.36 251.06 118.44 255.16L127.14 261.74L131.48 257.68L130.6 256.28C129.96 255.26 129.92 254 130.46 252.94L132.58 249.34C133.06 249.92 133.68 250.6 134.26 251C135.38 251.78 136.8 251.66 137.8 250.72C139.16 249.4 140.12 247.94 140.56 246.5L141.84 246.28Z" fill="#F8F8F8"/>
<path fill-rule="evenodd" clip-rule="evenodd" d="M127.14 262.2C127.04 262.2 126.94 262.16 126.86 262.1L118.18 255.5C118.08 255.44 118.02 255.32 118 255.18C118 255.06 118.04 254.94 118.12 254.84C121.7 251.1 127.14 245.26 128.48 243.78C127.64 243.02 126.78 241.96 126.72 240.9C126.7 240.3 126.9 239.78 127.36 239.32C128.06 238.58 128.76 238.32 129.44 238.48C129.78 238.56 130.06 238.74 130.28 238.98C130.3 238.02 130.48 236.96 131.1 236.22C131.62 235.6 132.36 235.3 133.3 235.34C134.64 235.4 136.04 235.72 137.28 236C139.28 236.46 141.02 236.86 141.6 236C141.72 235.84 141.94 235.76 142.12 235.82C142.48 235.94 142.48 235.94 142.36 237.9C142.24 240.14 142 244.32 142.28 246.22C142.32 246.46 142.16 246.68 141.92 246.72L140.9 246.9C140.4 248.32 139.44 249.76 138.1 251.04C136.94 252.14 135.3 252.26 134 251.36C133.6 251.08 133.147 250.66 132.64 250.1L130.84 253.16C130.38 254.06 130.44 255.16 130.98 256.04L131.86 257.44C131.98 257.62 131.94 257.86 131.8 258.02L127.44 262.08C127.36 262.16 127.24 262.2 127.14 262.2ZM119.12 255.1L127.1 261.16L130.92 257.62L130.22 256.5C129.52 255.38 129.44 253.92 130.06 252.74L132.2 249.1C132.26 248.98 132.4 248.9 132.54 248.88C132.68 248.88 132.82 248.94 132.92 249.04C133.54 249.8 134.08 250.32 134.5 250.64C135.46 251.3 136.64 251.2 137.48 250.38C138.8 249.14 139.72 247.74 140.14 246.38C140.18 246.22 140.32 246.1 140.48 246.06L141.36 245.92C141.14 243.8 141.36 239.98 141.48 237.84C141.48 237.62 141.5 237.38 141.52 237.18C140.44 237.64 138.86 237.28 137.08 236.86C135.82 236.58 134.52 236.28 133.26 236.22C132.62 236.2 132.12 236.38 131.78 236.8C130.92 237.84 131.18 240.1 131.36 240.88C131.42 241.12 131.28 241.34 131.04 241.4C130.8 241.46 130.56 241.34 130.5 241.1C130.38 240.7 129.9 239.52 129.22 239.34C128.88 239.26 128.46 239.46 127.98 239.94C127.72 240.22 127.6 240.52 127.62 240.84C127.64 241.56 128.28 242.46 129.42 243.4C129.5 243.48 129.56 243.6 129.56 243.72C129.58 243.84 129.54 243.96 129.46 244.04C129.12 244.42 123.12 250.88 119.12 255.1Z" fill="#7438F2"/>
<path d="M132.58 249.78C132.44 249.78 132.3 249.72 132.22 249.6L131.54 248.64C131.4 248.44 131.44 248.16 131.64 248.02C131.84 247.88 132.12 247.92 132.26 248.12L132.94 249.08C133.08 249.28 133.04 249.56 132.84 249.7C132.76 249.76 132.66 249.78 132.58 249.78Z" fill="#7438F2"/>
<path d="M207.461 389.28C207.381 389.64 211.541 408.68 211.541 408.68L201.961 407.08L199.081 390.98L207.461 389.28Z" fill="#F8F8F8"/>
<path fill-rule="evenodd" clip-rule="evenodd" d="M211.541 409.14C211.514 409.14 211.488 409.133 211.461 409.12L201.901 407.52C201.701 407.5 201.561 407.34 201.521 407.16L198.641 391.06C198.601 390.82 198.761 390.6 199.001 390.54L207.361 388.84C207.521 388.82 207.681 388.86 207.781 388.98C207.861 389.06 207.901 389.18 207.901 389.3C207.961 390.1 210.361 401.24 211.981 408.6C212.001 408.74 211.961 408.88 211.861 409C211.781 409.08 211.661 409.14 211.541 409.14ZM202.361 406.7L210.961 408.14C208.121 395.12 207.321 391.1 207.101 389.82L199.601 391.32L202.361 406.7Z" fill="#7438F2"/>
<path d="M206.46 402.44C207.04 401.94 207.88 401.46 208.94 401.42C210.54 401.36 212 402.36 212.68 403.84C214.34 407.52 218.7 417.8 219.94 426.18C220.38 429.16 218.14 431.58 214.66 429.62C208.94 426.44 201 419.12 196.84 408.32C196.38 407.08 196.54 405.68 197.32 404.6C197.96 403.74 198.84 402.68 199.84 401.78C200.8 400.9 202.24 400.9 203.24 401.72L204.14 402.46C204.82 403.02 205.78 403 206.46 402.44Z" fill="#F8F8F8"/>
<path fill-rule="evenodd" clip-rule="evenodd" d="M217 430.78C216.3 430.78 215.44 430.58 214.44 430.02C208.46 426.68 200.58 419.28 196.44 408.48C195.9 407.08 196.1 405.54 196.96 404.34C197.8 403.2 198.68 402.22 199.54 401.44C200.66 400.42 202.34 400.4 203.52 401.38L204.42 402.12C204.94 402.52 205.66 402.52 206.16 402.1C207 401.4 207.94 401.02 208.92 400.98C210.64 400.9 212.32 401.98 213.08 403.64C214.86 407.62 219.16 417.76 220.38 426.12C220.64 427.84 220.06 429.4 218.9 430.2C218.52 430.48 217.88 430.78 217 430.78ZM201.56 401.56C201.06 401.56 200.54 401.74 200.14 402.1C199.32 402.84 198.48 403.78 197.68 404.86C197 405.82 196.84 407.04 197.26 408.16C201.32 418.74 209.02 425.98 214.86 429.24C216.24 430 217.5 430.08 218.4 429.48C219.28 428.86 219.7 427.62 219.5 426.26C218.28 418 214.04 407.94 212.26 404.02C211.66 402.68 210.34 401.8 208.96 401.86C208.16 401.9 207.42 402.2 206.74 402.78C205.9 403.48 204.7 403.48 203.86 402.8L202.96 402.06C202.56 401.72 202.06 401.56 201.56 401.56Z" fill="#7438F2"/>
<path d="M217.76 427.42C217.02 427.42 208.94 426.96 199.16 407.62C199.04 407.4 199.14 407.14 199.36 407.02C199.58 406.92 199.84 407 199.96 407.22C209.76 426.6 217.7 426.54 217.78 426.54C218.04 426.52 218.24 426.72 218.24 426.96C218.24 427.22 218.06 427.42 217.82 427.42C217.806 427.42 217.786 427.42 217.76 427.42Z" fill="#7438F2"/>
<path d="M211.64 416.78C211.46 416.78 211.3 416.68 211.22 416.5C211.14 416.28 211.24 416.02 211.48 415.92L216.02 414.14C216.24 414.04 216.5 414.16 216.6 414.38C216.68 414.62 216.58 414.88 216.34 414.96L211.8 416.76C211.747 416.773 211.694 416.78 211.64 416.78Z" fill="#7438F2"/>
<path d="M210.06 413.32C209.88 413.32 209.7 413.2 209.64 413.02C209.54 412.8 209.66 412.54 209.9 412.44L215.22 410.38C215.44 410.28 215.7 410.4 215.78 410.64C215.88 410.86 215.76 411.12 215.54 411.2L210.22 413.28C210.167 413.307 210.113 413.32 210.06 413.32Z" fill="#7438F2"/>
<path d="M166.28 391.02C166.06 391.3 161.82 410.34 161.82 410.34L153.82 404.86L157.98 389.04L166.28 391.02Z" fill="#F8F8F8"/>
<path fill-rule="evenodd" clip-rule="evenodd" d="M161.82 410.78C161.74 410.78 161.66 410.753 161.58 410.7L153.56 405.22C153.42 405.12 153.34 404.92 153.38 404.74L157.54 388.92C157.6 388.68 157.84 388.54 158.08 388.6L166.38 390.58C166.54 390.62 166.66 390.72 166.7 390.86C166.74 390.98 166.74 391.12 166.68 391.22C166.4 391.96 163.9 403.08 162.26 410.44C162.22 410.58 162.12 410.7 162 410.74C161.947 410.767 161.887 410.78 161.82 410.78ZM154.32 404.66L161.54 409.6C164.42 396.58 165.38 392.6 165.74 391.34L158.3 389.56L154.32 404.66Z" fill="#7438F2"/>
<path d="M159.841 402.52C160.581 402.32 161.541 402.24 162.521 402.66C164.021 403.26 164.921 404.78 164.901 406.4C164.861 410.44 164.501 421.62 162.101 429.74C161.241 432.62 158.201 433.88 155.861 430.64C152.001 425.34 147.881 415.38 148.661 403.82C148.741 402.5 149.481 401.3 150.641 400.66C151.601 400.14 152.821 399.54 154.121 399.14C155.361 398.76 156.681 399.36 157.241 400.52L157.741 401.58C158.121 402.36 159.001 402.76 159.841 402.52Z" fill="#F8F8F8"/>
<path fill-rule="evenodd" clip-rule="evenodd" d="M158.941 433C158.061 433 156.741 432.64 155.501 430.9C151.461 425.36 147.441 415.34 148.221 403.8C148.321 402.3 149.141 400.98 150.441 400.26C151.681 399.58 152.881 399.06 153.981 398.72C155.441 398.28 156.981 398.96 157.641 400.34L158.141 401.38C158.421 401.96 159.101 402.28 159.721 402.1C160.761 401.82 161.801 401.86 162.701 402.24C164.301 402.9 165.361 404.58 165.341 406.42C165.301 410.76 164.921 421.76 162.521 429.88C162.041 431.54 160.861 432.72 159.461 432.96C159.314 432.987 159.141 433 158.941 433ZM154.881 399.48C154.668 399.48 154.454 399.507 154.241 399.56C153.201 399.9 152.061 400.38 150.861 401.04C149.841 401.62 149.181 402.66 149.101 403.86C148.341 415.16 152.281 424.96 156.221 430.38C157.141 431.66 158.241 432.26 159.321 432.08C160.381 431.9 161.281 430.96 161.681 429.62C164.041 421.62 164.401 410.72 164.461 406.4C164.461 404.92 163.621 403.58 162.361 403.06C161.621 402.76 160.821 402.72 159.961 402.96C158.921 403.24 157.801 402.74 157.341 401.76L156.841 400.72C156.461 399.94 155.701 399.48 154.881 399.48Z" fill="#7438F2"/>
<path d="M159.821 430.02C159.754 430.02 159.694 430.007 159.641 429.98C159.321 429.84 151.821 426.44 151.041 404.16C151.041 403.92 151.221 403.72 151.481 403.7C151.721 403.7 151.921 403.88 151.941 404.14C152.681 425.84 159.921 429.12 159.981 429.16C160.221 429.26 160.321 429.52 160.221 429.74C160.161 429.92 160.001 430.02 159.821 430.02Z" fill="#7438F2"/>
<path d="M163.581 418.06C163.568 418.06 163.554 418.053 163.541 418.04L158.681 417.76C158.441 417.76 158.241 417.54 158.261 417.3C158.281 417.06 158.481 416.86 158.741 416.88L163.601 417.16C163.841 417.18 164.041 417.38 164.021 417.64C164.001 417.86 163.801 418.06 163.581 418.06Z" fill="#7438F2"/>
<path d="M164.421 414.3C164.407 414.3 164.401 414.3 164.401 414.3L158.701 413.94C158.461 413.94 158.261 413.72 158.281 413.48C158.301 413.22 158.521 413.04 158.761 413.06L164.461 413.42C164.701 413.42 164.881 413.64 164.861 413.88C164.861 414.12 164.661 414.3 164.421 414.3Z" fill="#7438F2"/>
<path d="M121.521 315.98C121.521 315.98 179.801 313.46 186.161 319.38C194.801 327.4 209.641 394.2 209.641 394.2L195.321 398.22C195.321 398.22 173.721 343.4 168.381 343.4C163.021 343.4 112.581 341.6 112.581 341.6L121.521 315.98Z" fill="#7438F2"/>
<path d="M117.681 314.52C113.061 314.3 108.961 317.36 107.861 321.86C106.201 328.8 104.741 338.3 108.501 340.82C114.601 344.94 158.681 344.58 157.161 344.06C155.641 343.56 153.221 381 153.221 395.42L167.101 395.94C167.101 395.94 189.221 338.02 186.841 331.56C182.561 319.98 149.741 317.34 139.221 315.78C137.821 315.58 125.841 314.94 117.681 314.52Z" fill="#7438F2"/>
<path d="M179.501 363.42C179.461 363.42 179.414 363.413 179.361 363.4C179.141 363.34 179.001 363.08 179.081 362.84C179.574 361.28 180.068 359.753 180.561 358.26C184.441 346.26 187.801 335.88 186.401 331.7C183.461 322.8 161.421 319.38 154.161 318.26C153.921 318.22 153.761 318 153.801 317.76C153.841 317.52 154.061 317.34 154.301 317.38C167.101 319.36 184.461 322.98 187.261 331.42C188.741 335.88 185.501 345.88 181.401 358.52C180.921 360.027 180.428 361.56 179.921 363.12C179.861 363.3 179.701 363.42 179.501 363.42Z" fill="#F8F8F8"/>
<path d="M307.141 345.42L313.901 414.68L318.721 414.48L316.321 341.66L307.141 345.42Z" fill="#F8F8F8"/>
<path fill-rule="evenodd" clip-rule="evenodd" d="M313.901 415.12C313.681 415.12 313.481 414.94 313.461 414.72L306.701 345.46C306.681 345.26 306.781 345.08 306.961 345L316.161 341.24C316.301 341.2 316.441 341.2 316.561 341.28C316.701 341.36 316.761 341.5 316.781 341.64L319.181 414.46C319.181 414.7 318.981 414.9 318.741 414.92L313.921 415.12C313.907 415.12 313.901 415.12 313.901 415.12ZM307.621 345.7L314.301 414.22L318.261 414.04L315.901 342.32L307.621 345.7Z" fill="#7438F2"/>
<path d="M397.86 342.92L391.26 414.84L386.28 414.48L388.66 339.04L397.86 342.92Z" fill="#F8F8F8"/>
<path fill-rule="evenodd" clip-rule="evenodd" d="M391.26 415.3C391.247 415.3 391.234 415.3 391.22 415.3L386.24 414.92C386 414.9 385.82 414.7 385.82 414.46L388.22 339.02C388.22 338.88 388.3 338.74 388.42 338.66C388.56 338.58 388.7 338.56 388.84 338.62L398.04 342.52C398.22 342.58 398.32 342.76 398.3 342.96L391.7 414.88C391.68 415.12 391.5 415.3 391.26 415.3ZM386.74 414.06L390.86 414.36L397.38 343.2L389.1 339.7L386.74 414.06Z" fill="#7438F2"/>
<path d="M420.841 326L418.901 401.52L415.001 400.68L411.421 322.4L420.841 326Z" fill="#F8F8F8"/>
<path fill-rule="evenodd" clip-rule="evenodd" d="M418.9 401.96C418.874 401.96 418.84 401.96 418.8 401.96L414.9 401.12C414.7 401.08 414.56 400.9 414.56 400.7L410.98 322.42C410.98 322.28 411.04 322.14 411.16 322.04C411.28 321.96 411.44 321.94 411.58 321.98L421 325.58C421.18 325.64 421.28 325.82 421.28 326L419.34 401.54C419.34 401.66 419.28 401.8 419.18 401.88C419.1 401.94 419 401.96 418.9 401.96ZM415.44 400.32L418.46 400.98L420.38 326.3L411.9 323.06L415.44 400.32Z" fill="#7438F2"/>
<path d="M344.701 324.3L342.761 399.84L338.701 399.86L335.281 320.72L344.701 324.3Z" fill="#F8F8F8"/>
<path fill-rule="evenodd" clip-rule="evenodd" d="M338.701 400.3C338.481 400.3 338.281 400.12 338.261 399.88L334.841 320.74C334.841 320.58 334.901 320.44 335.021 320.36C335.141 320.26 335.301 320.24 335.441 320.3L344.861 323.9C345.041 323.96 345.161 324.14 345.141 324.32L343.201 399.84C343.201 400.08 343.001 400.28 342.761 400.28L338.721 400.3C338.721 400.3 338.714 400.3 338.701 400.3ZM335.761 321.38L339.141 399.4H342.321L344.241 324.62L335.761 321.38Z" fill="#7438F2"/>
<path d="M364.261 265.32V282.9C364.261 300.08 350.701 314.02 333.981 314.02C317.261 314.02 303.721 327.94 303.721 345.14C303.721 346.66 304.961 347.9 306.481 347.9H386.621C411.681 347.9 432.001 327.02 432.001 301.26V263.76C432.001 253.52 423.921 245.2 413.961 245.2H383.841C373.021 245.2 364.261 254.22 364.261 265.32Z" fill="#F8F8F8"/>
<path fill-rule="evenodd" clip-rule="evenodd" d="M386.621 348.36H306.481C304.701 348.36 303.261 346.9 303.261 345.14C303.261 327.74 317.041 313.58 333.981 313.58C350.441 313.58 363.821 299.82 363.821 282.9V265.32C363.821 253.98 372.801 244.76 383.841 244.76H413.961C424.161 244.76 432.461 253.28 432.461 263.76V301.26C432.461 327.22 411.901 348.36 386.621 348.36ZM383.841 245.66C373.281 245.66 364.701 254.48 364.701 265.32V282.9C364.701 300.3 350.921 314.46 333.981 314.46C317.541 314.46 304.161 328.22 304.161 345.14C304.161 346.42 305.201 347.46 306.481 347.46H386.621C411.401 347.46 431.561 326.74 431.561 301.26V263.76C431.561 253.78 423.661 245.66 413.961 245.66H383.841Z" fill="#7438F2"/>
<path d="M358.541 266.16C358.541 266.16 354.181 305.86 324.841 308.46L358.541 308.94C358.541 308.94 371.021 283.62 371.521 273.76C372.041 263.92 358.541 266.16 358.541 266.16Z" fill="#F8F8F8"/>
<path fill-rule="evenodd" clip-rule="evenodd" d="M358.541 309.38L324.841 308.9C324.601 308.9 324.401 308.72 324.401 308.48C324.381 308.24 324.561 308.04 324.801 308.02C339.741 306.7 347.981 295.4 352.281 286.16C356.961 276.1 358.081 266.2 358.101 266.1C358.121 265.9 358.281 265.74 358.461 265.72C358.781 265.66 366.001 264.5 369.781 267.88C371.361 269.28 372.101 271.28 371.981 273.8C371.461 283.62 359.461 308.1 358.941 309.14C358.861 309.3 358.721 309.38 358.541 309.38ZM329.761 308.08L358.261 308.5C359.561 305.82 370.621 282.88 371.081 273.74C371.201 271.52 370.561 269.76 369.201 268.54C366.161 265.84 360.381 266.36 358.941 266.54C358.701 268.4 357.341 277.38 353.101 286.52C347.661 298.22 339.661 305.6 329.761 308.08Z" fill="#7438F2"/>
<path d="M400.301 240.92C394.601 239.58 392.221 239.56 371.541 240.3C366.481 240.48 360.481 246.84 359.881 251.88C361.481 256.7 368.901 280.52 355.961 299.12C354.121 301.76 351.621 304.66 348.201 307.44C350.121 309 353.121 311.04 357.141 312.22C363.801 314.22 367.161 312.06 372.541 312.22C386.761 312.66 391.981 328.52 401.181 326.52C403.621 326 406.881 324.08 409.921 317.64C411.661 312.32 413.201 306.06 414.041 298.98C416.381 279.82 412.581 263.86 409.181 253.84C408.181 250.68 407.001 242.5 400.301 240.92Z" fill="#7438F2"/>
<path d="M354.681 270.6C354.681 270.6 358.041 243.74 367.681 241.46L365.461 276.78L354.681 270.6Z" fill="#7438F2"/>
<path d="M403.682 263.44C408.082 265.3 413.262 267.5 417.822 269.46C417.822 269.513 417.822 269.567 417.822 269.62L403.682 263.52V263.44Z" fill="#F8F8F8"/>
<path d="M417.821 270.08C417.755 270.08 417.695 270.067 417.641 270.04L403.521 263.94C403.361 263.88 403.261 263.72 403.241 263.56V263.46C403.241 263.3 403.301 263.16 403.421 263.06C403.561 262.98 403.721 262.96 403.861 263.02C409.241 265.3 414.121 267.38 418.001 269.04C418.141 269.12 418.261 269.28 418.261 269.44V269.62C418.261 269.76 418.201 269.92 418.061 270C417.995 270.053 417.915 270.08 417.821 270.08Z" fill="#7438F2"/>
<path d="M420.281 275.52C420.281 275.52 419.341 259.58 417.961 253.4C415.061 240.44 398.281 240.3 398.281 240.3L401.221 273.3L420.281 275.52Z" fill="#7438F2"/>
<path d="M383.841 238.1L383.261 230.04C382.881 230.02 382.621 230 382.541 230C380.281 229.96 379.561 229.24 379.361 227.38C379.241 226.24 379.201 224.52 379.761 222.36C379.821 222.14 379.801 221.9 379.721 221.68L379.341 220.78C379.261 220.48 379.361 220.16 379.581 219.96L379.801 219.8C380.521 219.2 381.141 218.46 381.621 217.64C382.081 216.88 382.841 215.46 383.361 215.22C384.841 214.5 390.841 211.36 394.181 216.86C396.801 221.12 392.521 227.02 390.981 228.94C390.601 229.4 393.521 238.56 393.521 238.56L397.281 239.46C397.281 239.46 394.361 244.62 385.561 242.48C379.281 240.96 380.281 238.62 380.281 238.62L383.841 238.1Z" fill="#F8F8F8"/>
<path fill-rule="evenodd" clip-rule="evenodd" d="M389.621 243.46C388.401 243.46 387.021 243.3 385.461 242.92C382.481 242.2 380.641 241.18 380.021 239.92C379.601 239.12 379.841 238.52 379.881 238.46C379.941 238.32 380.061 238.22 380.221 238.18L383.361 237.72L382.841 230.46C382.681 230.44 382.581 230.44 382.521 230.44C380.121 230.42 379.141 229.6 378.921 227.44C378.741 225.7 378.881 224 379.321 222.26C379.361 222.12 379.361 221.98 379.301 221.86L378.921 220.94C378.908 220.927 378.901 220.913 378.901 220.9C378.781 220.42 378.941 219.92 379.301 219.62L379.521 219.46C380.181 218.9 380.761 218.22 381.241 217.4L381.441 217.06C382.101 215.94 382.641 215.06 383.181 214.8L383.321 214.74C388.501 212.24 392.281 212.86 394.561 216.62C397.221 220.96 393.281 226.76 391.381 229.14C391.381 229.92 392.621 234.24 393.861 238.18L397.381 239.02C397.521 239.06 397.621 239.16 397.681 239.28C397.741 239.42 397.721 239.56 397.661 239.68C397.561 239.86 395.461 243.46 389.621 243.46ZM380.661 239.02C380.681 239.16 380.701 239.34 380.821 239.56C381.141 240.12 382.161 241.2 385.661 242.06C392.401 243.68 395.521 240.92 396.521 239.74L393.401 238.98C393.261 238.94 393.141 238.84 393.081 238.68C390.101 229.32 390.461 228.88 390.641 228.66C392.381 226.48 396.201 221 393.801 217.08C390.781 212.12 385.461 214.7 383.721 215.54L383.561 215.62C383.221 215.76 382.541 216.94 382.221 217.52L382.001 217.86C381.481 218.76 380.821 219.52 380.081 220.14L379.881 220.3C379.781 220.38 379.741 220.52 379.761 220.64L380.121 221.5C380.261 221.8 380.281 222.16 380.201 222.48C379.761 224.12 379.641 225.72 379.801 227.34C379.961 228.84 380.401 229.52 382.541 229.54C382.621 229.54 382.901 229.56 383.301 229.6C383.521 229.6 383.701 229.78 383.701 230L384.281 238.08C384.301 238.3 384.121 238.52 383.901 238.54L380.661 239.02Z" fill="#7438F2"/>
<path d="M392.342 209.88C390.722 209.52 388.842 209.78 388.062 209.48C386.782 209.02 386.762 207.5 385.002 207.06C382.862 206.54 381.982 207.46 381.142 208.72C381.008 208.933 380.888 209.173 380.782 209.44C379.442 213.04 381.142 214.78 381.882 215.36C381.882 215.36 386.682 217.84 387.502 218.54C388.262 219.2 389.142 220.78 388.602 223.02C388.522 223.32 388.642 223.62 388.902 223.76C389.182 223.94 389.562 223.86 389.762 223.58C390.382 222.66 391.742 220.92 392.702 221.34C393.922 221.86 393.542 225.5 390.862 225.92C390.042 226.06 389.362 226.9 389.442 227.76C389.502 228.32 390.022 229.02 390.822 229.2C391.302 229.3 391.782 229.1 392.202 228.84C393.942 227.72 398.882 222.98 399.502 218.72C400.242 213.58 394.502 210.34 392.342 209.88Z" fill="#7438F2"/>
<path d="M382.661 230.4C382.421 230.4 382.221 230.22 382.221 229.98C382.201 229.72 382.401 229.52 382.641 229.52C382.661 229.52 384.381 229.44 385.541 228.44C385.741 228.28 386.021 228.3 386.181 228.48C386.341 228.68 386.321 228.96 386.121 229.12C384.721 230.32 382.761 230.4 382.681 230.4C382.668 230.4 382.661 230.4 382.661 230.4Z" fill="#7438F2"/>
<path d="M344.241 392.3C343.421 391.46 338.681 376.7 338.681 376.7L329.321 383.4L339.581 397.2L344.241 392.3Z" fill="#F8F8F8"/>
<path fill-rule="evenodd" clip-rule="evenodd" d="M339.581 397.64C339.581 397.64 339.575 397.64 339.561 397.64C339.421 397.64 339.301 397.58 339.221 397.46L328.961 383.66C328.901 383.56 328.861 383.44 328.881 383.32C328.901 383.2 328.961 383.1 329.061 383.04L338.421 376.34C338.541 376.26 338.681 376.24 338.821 376.28C338.961 376.32 339.061 376.44 339.101 376.58C340.901 382.16 343.981 391.3 344.561 391.98C344.721 392.16 344.721 392.44 344.561 392.6L339.901 397.5C339.821 397.6 339.701 397.64 339.581 397.64ZM329.961 383.5L339.621 396.52L343.681 392.24C342.581 390.1 339.461 380.58 338.441 377.42L329.961 383.5Z" fill="#7438F2"/>
<path d="M327.38 410.94L333.6 410.9C337.72 410.88 341.54 408.78 343.8 405.34L349.94 395.58C351.64 392.88 350.7 389.3 347.88 387.82C345.32 386.44 342.62 385.12 342 385.18C340.72 385.3 340.2 391.36 340.2 391.36L334.66 391.58C334.66 391.58 331.92 402.98 329.5 404.28C327.74 405.22 326.52 406.6 325.7 407.88C324.82 409.2 325.8 410.96 327.38 410.94Z" fill="#7438F2"/>
<path d="M328.001 408.96C327.781 408.96 327.601 408.8 327.561 408.58C327.521 408.34 327.681 408.1 327.941 408.08L336.441 406.78C338.241 406.52 339.781 405.48 340.721 403.92L348.241 391.34C348.361 391.12 348.641 391.06 348.841 391.18C349.061 391.32 349.121 391.58 349.001 391.8L341.481 404.38C340.421 406.16 338.621 407.36 336.581 407.66L328.061 408.96C328.047 408.96 328.027 408.96 328.001 408.96Z" fill="#F8F8F8"/>
<path d="M338.5 399.5C338.473 399.5 338.44 399.493 338.4 399.48L333.64 398.18C333.42 398.12 333.28 397.88 333.34 397.64C333.4 397.4 333.64 397.26 333.88 397.32L338.62 398.62C338.86 398.68 339 398.92 338.94 399.16C338.88 399.36 338.7 399.5 338.5 399.5Z" fill="#F8F8F8"/>
<path d="M336.041 401.94C336.001 401.94 335.968 401.933 335.941 401.92L332.761 401.14C332.521 401.08 332.361 400.84 332.421 400.6C332.481 400.36 332.721 400.22 332.961 400.28L336.141 401.06C336.381 401.12 336.521 401.36 336.481 401.6C336.421 401.8 336.241 401.94 336.041 401.94Z" fill="#F8F8F8"/>
<path d="M312.301 389.48L301.441 400.4L295.681 398.28L305.701 384.3L312.301 389.48Z" fill="#F8F8F8"/>
<path fill-rule="evenodd" clip-rule="evenodd" d="M301.44 400.86C301.387 400.86 301.334 400.847 301.28 400.82L295.52 398.7C295.38 398.66 295.28 398.56 295.24 398.42C295.2 398.28 295.24 398.14 295.32 398.04L305.32 384.04C305.4 383.94 305.5 383.88 305.62 383.86C305.74 383.84 305.88 383.88 305.96 383.96L312.58 389.12C312.68 389.2 312.74 389.32 312.74 389.44C312.76 389.58 312.7 389.7 312.62 389.8L301.76 400.72C301.66 400.8 301.56 400.86 301.44 400.86ZM296.38 398.08L301.32 399.9L311.64 389.52L305.78 384.94L296.38 398.08Z" fill="#7438F2"/>
<path d="M369.821 308.78C369.821 308.78 320.161 302.68 305.401 316.16C290.621 329.64 328.701 387.6 328.701 387.6L340.741 378.18L329.321 337.22L375.241 323.46L369.821 308.78Z" fill="#F8F8F8"/>
<path fill-rule="evenodd" clip-rule="evenodd" d="M328.701 388.04C328.675 388.04 328.655 388.04 328.641 388.04C328.501 388.02 328.401 387.94 328.341 387.84C326.761 385.46 290.221 329.4 305.101 315.82C319.841 302.36 367.841 308.08 369.881 308.34C370.041 308.36 370.181 308.46 370.241 308.62L375.661 323.32C375.701 323.42 375.701 323.56 375.641 323.66C375.581 323.78 375.481 323.86 375.361 323.9L329.881 337.52L341.181 378.06C341.221 378.24 341.161 378.42 341.021 378.52L328.981 387.94C328.901 388 328.801 388.04 328.701 388.04ZM345.341 307.86C330.641 307.86 313.321 309.52 305.701 316.48C292.001 328.98 325.481 381.76 328.821 386.94L340.241 378.02L328.901 337.34C328.841 337.1 328.961 336.86 329.201 336.78L374.661 323.18L369.501 309.18C367.721 308.98 357.401 307.86 345.341 307.86Z" fill="#7438F2"/>
<path d="M397.161 335.44C389.941 337.86 377.041 340.98 359.001 340.72C353.861 340.66 349.141 343.64 346.801 348.46C341.461 359.5 329.901 379.4 311.061 392.3L302.061 387.18L325.021 332.68C327.121 327.7 331.041 323.82 335.901 321.96L381.421 304.36C381.421 304.36 395.521 300.2 402.441 313.48C403.681 315.86 405.981 311.62 406.521 313.52C408.401 320.08 403.361 333.38 397.161 335.44Z" fill="#F8F8F8"/>
<path fill-rule="evenodd" clip-rule="evenodd" d="M311.061 392.74C310.981 392.74 310.908 392.72 310.841 392.68L301.841 387.56C301.641 387.46 301.561 387.22 301.641 387L324.621 332.5C326.741 327.44 330.801 323.44 335.741 321.54L381.261 303.94C381.421 303.88 395.841 299.82 402.841 313.28C402.988 313.56 403.148 313.72 403.321 313.76C403.681 313.86 404.221 313.5 404.701 313.18C405.261 312.78 405.801 312.42 406.321 312.62C406.628 312.727 406.841 312.987 406.961 313.4C408.861 320.08 403.781 333.7 397.301 335.88C389.661 338.44 376.801 341.42 358.981 341.18C358.928 341.167 358.868 341.16 358.801 341.16C353.881 341.16 349.441 344.02 347.201 348.64C341.961 359.5 330.321 379.66 311.301 392.66C311.221 392.713 311.141 392.74 311.061 392.74ZM302.621 386.98L311.041 391.76C329.741 378.86 341.221 358.98 346.401 348.26C348.781 343.34 353.721 340.2 359.001 340.28C376.701 340.54 389.441 337.56 397.021 335.02C403.001 333.02 407.861 319.86 406.101 313.64C406.041 313.48 406.001 313.44 406.001 313.44C405.881 313.44 405.461 313.74 405.201 313.92C404.561 314.34 403.841 314.82 403.101 314.62C402.681 314.52 402.321 314.2 402.061 313.68C395.381 300.9 382.101 304.62 381.541 304.78L336.061 322.36C331.341 324.18 327.481 328 325.441 332.84L302.621 386.98Z" fill="#7438F2"/>
<path d="M304.861 398.7C304.861 398.7 305.401 403.34 304.501 407.46C304.021 409.64 302.061 411.18 299.821 411.18H273.141C271.241 411.18 270.381 408.8 271.841 407.58C276.581 403.6 285.301 397.52 296.021 395.74L299.021 399.94L304.861 398.7Z" fill="#7438F2"/>
<path d="M302.061 407.96H274.421C274.161 407.96 273.961 407.76 273.961 407.52C273.961 407.28 274.161 407.08 274.421 407.08H302.061C302.301 407.08 302.501 407.28 302.501 407.52C302.501 407.76 302.301 407.96 302.061 407.96Z" fill="#F8F8F8"/>
<path d="M289.84 403.04C289.66 403.04 289.5 402.94 289.42 402.78L287.96 399.22C287.86 399 287.98 398.72 288.2 398.64C288.44 398.54 288.7 398.66 288.78 398.88L290.24 402.44C290.34 402.66 290.24 402.92 290 403.02C289.947 403.033 289.894 403.04 289.84 403.04Z" fill="#F8F8F8"/>
<path d="M285.02 403.98C284.84 403.98 284.66 403.86 284.6 403.68L283.54 400.46C283.46 400.24 283.6 399.98 283.82 399.9C284.06 399.82 284.32 399.96 284.4 400.2L285.44 403.4C285.52 403.62 285.4 403.88 285.16 403.96C285.12 403.973 285.074 403.98 285.02 403.98Z" fill="#F8F8F8"/>
<path d="M406.161 272.44C401.321 290.08 386.941 301.34 366.061 307.26L369.261 313.2C398.241 312.18 413.441 299.58 419.521 275.4L406.161 272.44Z" fill="#F8F8F8"/>
<path fill-rule="evenodd" clip-rule="evenodd" d="M369.26 313.66C369.08 313.66 368.94 313.56 368.86 313.42L365.68 307.48C365.62 307.36 365.6 307.22 365.66 307.08C365.72 306.96 365.82 306.88 365.94 306.84C387.76 300.64 401.14 289.02 405.74 272.32C405.8 272.08 406.02 271.94 406.26 272L419.62 274.98C419.74 275 419.84 275.08 419.9 275.18C419.96 275.28 419.98 275.4 419.96 275.52C413.66 300.54 397.56 312.66 369.26 313.66ZM366.72 307.54L369.52 312.76C397.02 311.72 412.74 299.94 418.98 275.74L406.48 272.96C401.74 289.64 388.36 301.26 366.72 307.54Z" fill="#7438F2"/>
<path d="M371.021 306.78C370.721 306.2 370.221 305.74 369.621 305.52C369.181 305.36 368.761 305.16 368.341 304.94L362.661 301.92C361.601 301.4 360.081 302.62 358.981 302.98C355.641 304.08 348.741 306.66 349.321 309.08C349.941 311.68 355.861 310.46 357.961 309.92C358.441 309.8 362.801 311.38 364.181 311.48C366.081 311.62 366.521 311.14 367.441 310.66C367.881 310.44 368.341 310.34 368.861 310.34C369.641 310.32 370.381 310 370.881 309.38L370.901 309.36C371.441 308.7 371.521 307.76 371.141 307L371.021 306.78Z" fill="#F8F8F8"/>
<path fill-rule="evenodd" clip-rule="evenodd" d="M364.801 311.96C364.601 311.96 364.381 311.947 364.141 311.92C363.381 311.88 361.901 311.44 360.461 311C359.481 310.72 358.281 310.34 358.041 310.36C355.841 310.92 351.801 311.68 349.881 310.52C349.361 310.2 349.021 309.74 348.881 309.18C348.281 306.6 353.961 304.16 358.841 302.56C359.141 302.46 359.481 302.28 359.861 302.1C360.821 301.62 361.921 301.06 362.861 301.52L368.561 304.54C369.021 304.8 369.421 304.98 369.781 305.1C370.481 305.36 371.061 305.88 371.421 306.58L371.521 306.78C372.001 307.72 371.881 308.84 371.241 309.64C370.661 310.36 369.801 310.76 368.861 310.78C368.401 310.78 368.001 310.86 367.661 311.06C367.514 311.127 367.381 311.2 367.261 311.28C366.641 311.62 366.061 311.96 364.801 311.96ZM358.041 309.48C358.381 309.48 359.041 309.66 360.721 310.16C362.041 310.54 363.541 311 364.221 311.04C365.681 311.16 366.161 310.88 366.821 310.5C366.954 310.42 367.094 310.34 367.241 310.26C367.721 310.02 368.261 309.88 368.861 309.88C369.521 309.88 370.141 309.6 370.541 309.1C370.981 308.56 371.041 307.8 370.741 307.2L370.621 306.98C370.381 306.48 369.961 306.12 369.461 305.94C369.061 305.8 368.641 305.6 368.141 305.34L362.461 302.32C361.921 302.06 361.041 302.5 360.261 302.9C359.861 303.1 359.481 303.28 359.121 303.4C353.001 305.42 349.421 307.54 349.761 308.98C349.821 309.3 350.021 309.56 350.361 309.76C351.521 310.48 354.321 310.38 357.861 309.5C357.901 309.487 357.961 309.48 358.041 309.48Z" fill="#7438F2"/>
<path d="M158.981 314.74H382.041C386.181 314.74 389.421 317.48 388.941 320.58L373.541 422.78H362.421L372.061 326.88C372.241 325.18 370.461 323.74 368.221 323.74H176.741C173.401 323.74 170.741 325.9 171.001 328.42L180.541 423.38H169.421L153.761 319.16C153.401 316.8 155.841 314.74 158.981 314.74Z" fill="#F8F8F8"/>
<path fill-rule="evenodd" clip-rule="evenodd" d="M180.54 423.82H169.42C169.2 423.82 169.02 423.66 168.98 423.44L153.32 319.22C153.16 318.18 153.48 317.12 154.24 316.26C155.3 315.02 157.06 314.3 158.98 314.3H382.04C384.52 314.3 386.84 315.24 388.2 316.84C389.18 317.96 389.58 319.32 389.38 320.66L373.98 422.84C373.96 423.06 373.76 423.22 373.54 423.22H362.42C362.3 423.22 362.18 423.16 362.1 423.08C362 422.98 361.96 422.86 361.98 422.74L371.62 326.82C371.68 326.14 371.36 325.62 371.08 325.3C370.44 324.6 369.38 324.18 368.22 324.18H176.74C174.96 324.18 173.32 324.84 172.32 325.94C171.66 326.66 171.36 327.52 171.44 328.38L180.98 423.34C181 423.46 180.96 423.58 180.88 423.68C180.8 423.76 180.68 423.82 180.54 423.82ZM169.8 422.92H180.06L170.56 328.46C170.44 327.36 170.84 326.24 171.66 325.34C172.82 324.06 174.72 323.3 176.74 323.3H368.22C369.62 323.3 370.94 323.82 371.74 324.72C372.32 325.34 372.58 326.14 372.5 326.92L362.92 422.32H373.16L388.5 320.52C388.68 319.42 388.34 318.36 387.54 317.42C386.32 316.02 384.26 315.18 382.04 315.18H158.98C157.32 315.18 155.8 315.8 154.9 316.84C154.32 317.52 154.08 318.3 154.2 319.08L169.8 422.92Z" fill="#7438F2"/>
<path d="M344.121 311.46L332.141 276.14C331.421 275.04 330.161 274.36 328.821 274.36H296.861C295.421 274.36 294.481 275.78 294.961 277.02C295.141 277.5 295.341 278 295.501 278.5L306.341 311.54C306.381 313.46 307.961 315.02 309.901 315.02H368.861C370.821 315.02 372.401 313.42 372.401 311.46H344.121Z" fill="#F8F8F8"/>
<path fill-rule="evenodd" clip-rule="evenodd" d="M368.861 315.46H309.901C307.761 315.46 305.981 313.74 305.901 311.62L295.081 278.64C294.981 278.28 294.841 277.94 294.701 277.6L294.541 277.18C294.261 276.44 294.361 275.62 294.821 274.98C295.281 274.3 296.021 273.92 296.861 273.92H328.821C330.321 273.92 331.701 274.66 332.501 275.9C332.527 275.927 332.547 275.96 332.561 276L344.441 311.02H372.401C372.641 311.02 372.841 311.22 372.841 311.46C372.841 313.66 371.061 315.46 368.861 315.46ZM306.741 311.34C306.781 311.393 306.801 311.453 306.801 311.52C306.821 313.2 308.221 314.58 309.901 314.58H368.861C370.421 314.58 371.701 313.42 371.921 311.92H344.121C343.921 311.92 343.761 311.78 343.701 311.6L331.721 276.34C331.081 275.38 330.001 274.8 328.821 274.8H296.861C296.321 274.8 295.841 275.06 295.541 275.48C295.261 275.9 295.201 276.4 295.381 276.86L295.541 277.26C295.661 277.62 295.821 277.98 295.941 278.36L306.741 311.34Z" fill="#7438F2"/>
<path d="M320.36 292.46C320.82 293.96 320.14 295.5 318.84 295.88C317.54 296.28 316.12 295.38 315.66 293.88C315.22 292.4 315.9 290.86 317.2 290.46C318.5 290.08 319.92 290.98 320.36 292.46Z" fill="#7438F2"/>
<path d="M213.74 315.52H154.78C153.16 315.52 151.86 314.22 151.86 312.6V312.04H216.66V312.6C216.66 314.22 215.34 315.52 213.74 315.52Z" fill="#F8F8F8"/>
<path fill-rule="evenodd" clip-rule="evenodd" d="M213.74 315.96H154.78C152.92 315.96 151.42 314.46 151.42 312.6V312.04C151.42 311.8 151.62 311.6 151.86 311.6H216.66C216.9 311.6 217.1 311.8 217.1 312.04V312.6C217.1 314.46 215.58 315.96 213.74 315.96ZM152.3 312.5V312.6C152.3 313.98 153.42 315.08 154.78 315.08H213.74C215.1 315.08 216.2 313.98 216.2 312.6V312.5H152.3Z" fill="#7438F2"/>
<path d="M216.66 312.1H179.58L191.36 277.44C192.06 276.36 193.3 275.7 194.62 275.7H225.94C227.38 275.7 228.28 277.08 227.82 278.3C227.64 278.78 227.44 279.26 227.28 279.74L216.66 312.1Z" fill="#F8F8F8"/>
<path fill-rule="evenodd" clip-rule="evenodd" d="M216.66 312.56H179.58C179.44 312.56 179.3 312.48 179.22 312.36C179.14 312.26 179.12 312.1 179.16 311.96L190.94 277.3C190.953 277.26 190.966 277.227 190.98 277.2C191.78 275.98 193.14 275.24 194.62 275.24H225.94C226.78 275.24 227.52 275.64 227.96 276.3C228.4 276.94 228.52 277.74 228.24 278.44L228.08 278.86C227.94 279.2 227.82 279.54 227.7 279.88L217.08 312.24C217.02 312.42 216.84 312.56 216.66 312.56ZM180.2 311.66H216.32L226.86 279.6C226.98 279.24 227.12 278.88 227.24 278.54L227.4 278.14C227.58 277.7 227.5 277.2 227.24 276.8C226.94 276.38 226.48 276.14 225.94 276.14H194.62C193.46 276.14 192.4 276.7 191.76 277.64L180.2 311.66Z" fill="#7438F2"/>
<path d="M202.9 293.44C202.46 294.9 203.12 296.4 204.4 296.78C205.68 297.16 207.06 296.3 207.5 294.82C207.96 293.36 207.28 291.86 206 291.48C204.72 291.1 203.34 291.96 202.9 293.44Z" fill="#7438F2"/>
<path d="M420.3 425.02H359.6C355.96 425.02 353.22 421.68 353.96 418.12L363.16 373.34C363.94 369.58 367.26 366.88 371.1 366.88H423.18L420.3 425.02Z" fill="#F8F8F8"/>
<path fill-rule="evenodd" clip-rule="evenodd" d="M420.3 425.48H359.6C357.72 425.48 355.98 424.64 354.78 423.2C353.6 421.74 353.14 419.86 353.52 418.02L362.74 373.26C363.54 369.3 367.06 366.44 371.1 366.44H423.18C423.3 366.44 423.42 366.48 423.5 366.56C423.58 366.66 423.62 366.78 423.62 366.9L420.74 425.06C420.74 425.28 420.54 425.48 420.3 425.48ZM371.1 367.32C367.48 367.32 364.34 369.9 363.6 373.44L354.4 418.2C354.08 419.78 354.46 421.38 355.48 422.62C356.5 423.88 358 424.58 359.6 424.58H419.88L422.7 367.32H371.1Z" fill="#7438F2"/>
<path d="M428.08 425.02H416.3C412.64 425.02 409.92 421.68 410.66 418.12L420.8 368.8C421.04 367.68 422.02 366.88 423.16 366.88H426.2C427.44 366.88 428.5 367.84 428.6 369.1L432.74 419.96C432.96 422.7 430.82 425.02 428.08 425.02Z" fill="#F8F8F8"/>
<path fill-rule="evenodd" clip-rule="evenodd" d="M428.08 425.48H416.3C414.42 425.48 412.68 424.64 411.48 423.2C410.3 421.74 409.84 419.86 410.22 418.02L420.36 368.72C420.64 367.4 421.82 366.44 423.16 366.44H426.2C427.68 366.44 428.92 367.58 429.04 369.06L433.2 419.92C433.3 421.34 432.82 422.76 431.84 423.82C430.88 424.88 429.5 425.48 428.08 425.48ZM423.16 367.32C422.24 367.32 421.42 367.98 421.24 368.9L411.1 418.2C410.78 419.78 411.16 421.38 412.18 422.62C413.2 423.88 414.7 424.58 416.3 424.58H428.08C429.28 424.58 430.38 424.1 431.2 423.22C432 422.34 432.4 421.2 432.3 420L428.16 369.12C428.08 368.12 427.2 367.32 426.2 367.32H423.16Z" fill="#7438F2"/>
<path d="M412.04 390.82H364.5C364.26 390.82 364.06 390.62 364.06 390.38C364.06 390.14 364.26 389.94 364.5 389.94H412.04C413.24 389.94 414.28 389.12 414.56 387.94L418.74 370.24C418.8 370 419.04 369.86 419.28 369.92C419.52 369.98 419.66 370.22 419.62 370.46L415.42 388.14C415.04 389.72 413.66 390.82 412.04 390.82Z" fill="#7438F2"/>
<path d="M393.68 390.38L392.36 395.74C392.14 396.66 391.32 397.3 390.4 397.3H380.98C379.96 397.3 379.22 396.32 379.48 395.34L380.86 390.38H393.68Z" fill="#F8F8F8"/>
<path fill-rule="evenodd" clip-rule="evenodd" d="M390.4 397.74H380.98C380.36 397.74 379.78 397.46 379.4 396.96C379.02 396.46 378.88 395.82 379.06 395.22L380.44 390.26C380.48 390.06 380.66 389.94 380.86 389.94H393.68C393.82 389.94 393.96 390 394.04 390.1C394.12 390.22 394.16 390.36 394.12 390.48L392.78 395.86C392.52 396.96 391.54 397.74 390.4 397.74ZM381.2 390.82L379.92 395.46C379.82 395.78 379.88 396.14 380.1 396.42C380.32 396.7 380.64 396.86 380.98 396.86H390.4C391.12 396.86 391.76 396.36 391.92 395.64L393.12 390.82H381.2Z" fill="#7438F2"/>
<path d="M407.7 420.98H357.2C356.96 420.98 356.76 420.78 356.76 420.54C356.76 420.28 356.96 420.08 357.2 420.08H407.7C407.94 420.08 408.14 420.28 408.14 420.54C408.14 420.78 407.94 420.98 407.7 420.98Z" fill="#7438F2"/>
<path d="M383.101 364.84H379.161C378.081 364.84 377.221 365.7 377.221 366.78H385.021C385.021 365.7 384.161 364.84 383.101 364.84Z" fill="#7438F2"/>
<path fill-rule="evenodd" clip-rule="evenodd" d="M385.02 367.22H377.22C376.98 367.22 376.78 367.02 376.78 366.78C376.78 365.46 377.84 364.4 379.16 364.4H383.1C384.4 364.4 385.46 365.46 385.46 366.78C385.46 367.02 385.26 367.22 385.02 367.22ZM377.74 366.32H384.52C384.32 365.72 383.76 365.28 383.1 365.28H379.16C378.5 365.28 377.92 365.72 377.74 366.32Z" fill="#7438F2"/>
<path d="M414.68 364.84H410.74C409.68 364.84 408.82 365.7 408.82 366.78H416.62C416.62 365.7 415.76 364.84 414.68 364.84Z" fill="#7438F2"/>
<path fill-rule="evenodd" clip-rule="evenodd" d="M416.62 367.22H408.82C408.58 367.22 408.38 367.02 408.38 366.78C408.38 365.46 409.44 364.4 410.74 364.4H414.68C416 364.4 417.06 365.46 417.06 366.78C417.06 367.02 416.86 367.22 416.62 367.22ZM409.32 366.32H416.1C415.92 365.72 415.34 365.28 414.68 365.28H410.74C410.08 365.28 409.52 365.72 409.32 366.32Z" fill="#7438F2"/>
<path d="M413.661 364.74L414.301 360.96C414.741 358.3 412.941 356.12 410.261 356.12H386.621C383.961 356.12 381.421 358.3 380.961 360.96L380.341 364.74H382.141L382.641 361.8C382.981 359.72 384.961 358.04 387.041 358.04H409.201C411.281 358.04 412.701 359.72 412.341 361.8L411.841 364.74H413.661Z" fill="#F8F8F8"/>
<path fill-rule="evenodd" clip-rule="evenodd" d="M413.661 365.18H411.841C411.721 365.18 411.601 365.12 411.501 365.02C411.421 364.92 411.381 364.8 411.401 364.66L411.901 361.72C412.061 360.84 411.841 360.02 411.341 359.4C410.821 358.8 410.081 358.48 409.201 358.48H387.041C385.161 358.48 383.381 360 383.081 361.88L382.581 364.82C382.541 365.02 382.361 365.18 382.141 365.18H380.341C380.201 365.18 380.081 365.12 380.001 365.02C379.901 364.92 379.881 364.8 379.901 364.66L380.521 360.9C381.021 358.02 383.741 355.68 386.621 355.68H410.261C411.681 355.68 412.921 356.22 413.761 357.22C414.641 358.24 414.981 359.6 414.741 361.04L414.101 364.82C414.061 365.02 413.881 365.18 413.661 365.18ZM412.381 364.3H413.281L413.861 360.9C414.061 359.72 413.781 358.62 413.081 357.8C412.421 357 411.421 356.56 410.261 356.56H386.621C384.161 356.56 381.821 358.58 381.401 361.04L380.861 364.3H381.761L382.201 361.72C382.581 359.44 384.761 357.58 387.041 357.58H409.201C410.341 357.58 411.341 358.02 412.021 358.84C412.701 359.64 412.981 360.72 412.781 361.88L412.381 364.3Z" fill="#7438F2"/>
<path d="M409.08 354.56H388.32C387.5 354.56 386.7 355.24 386.56 356.08L386.26 357.88C386.12 358.72 386.68 359.4 387.52 359.4H408.28C409.12 359.4 409.9 358.72 410.04 357.88L410.34 356.08C410.48 355.24 409.92 354.56 409.08 354.56Z" fill="#7438F2"/>
<path fill-rule="evenodd" clip-rule="evenodd" d="M408.28 359.84H387.52C386.98 359.84 386.5 359.64 386.18 359.26C385.86 358.86 385.72 358.36 385.82 357.82L386.12 356C386.3 354.94 387.26 354.12 388.32 354.12H409.08C409.62 354.12 410.1 354.32 410.42 354.7C410.74 355.1 410.88 355.6 410.78 356.14L410.48 357.96C410.3 359.02 409.34 359.84 408.28 359.84ZM388.32 355C387.7 355 387.1 355.52 387 356.14L386.7 357.96C386.64 358.24 386.7 358.5 386.86 358.68C387.02 358.86 387.24 358.96 387.52 358.96H408.28C408.9 358.96 409.5 358.44 409.6 357.82L409.9 356C409.96 355.72 409.9 355.46 409.74 355.28C409.58 355.1 409.36 355 409.08 355H388.32Z" fill="#7438F2"/>
<path d="M416.18 420.98C416.02 420.98 415.88 420.9 415.8 420.76C415.68 420.54 415.74 420.26 415.96 420.14L423.88 415.64V370.36C423.88 370.1 424.08 369.9 424.32 369.9C424.56 369.9 424.76 370.1 424.76 370.36V415.9C424.76 416.06 424.68 416.2 424.54 416.28L416.4 420.92C416.333 420.96 416.26 420.98 416.18 420.98Z" fill="#7438F2"/>
</svg>
